<svg xmlns="http://www.w3.org/2000/svg" xmlns:xlink="http://www.w3.org/1999/xlink" viewBox="0,0,256,256" width="32px" height="32px" fill-rule="nonzero"><g fill="#9d8d40" fill-rule="nonzero" stroke="none" stroke-width="1" stroke-linecap="butt" stroke-linejoin="miter" stroke-miterlimit="10" stroke-dasharray="" stroke-dashoffset="0" font-family="none" font-weight="none" font-size="none" text-anchor="none" style="mix-blend-mode: normal"><g transform="scale(8,8)"><path d="M16,4c-6.61719,0 -12,5.38281 -12,12c0,6.61719 5.38281,12 12,12c6.61719,0 12,-5.38281 12,-12c0,-6.61719 -5.38281,-12 -12,-12zM16,4.5625c6.3125,0 11.4375,5.125 11.4375,11.4375c0,6.3125 -5.125,11.4375 -11.4375,11.4375c-6.3125,0 -11.4375,-5.125 -11.4375,-11.4375c0,-6.3125 5.125,-11.4375 11.4375,-11.4375zM16,5.71875c-3.59766,0 -6.75391,1.82813 -8.59375,4.625c0.24219,0.00781 0.46094,0 0.65625,0c1.07813,0 2.75,-0.125 2.75,-0.125c0.55469,-0.03125 0.61719,0.77734 0.0625,0.84375c0,0 -0.56641,0.09375 -1.1875,0.125l3.75,11.125l2.25,-6.75l-1.59375,-4.375c-0.55469,-0.03125 -1.09375,-0.125 -1.09375,-0.125c-0.55469,-0.03125 -0.49219,-0.875 0.0625,-0.84375c0,0 1.70703,0.125 2.71875,0.125c1.07813,0 2.75,-0.125 2.75,-0.125c0.55469,-0.03125 0.61719,0.77734 0.0625,0.84375c0,0 -0.57031,0.09375 -1.1875,0.125l3.71875,11.0625l1.03125,-3.4375c0.51953,-1.33594 0.78125,-2.46094 0.78125,-3.34375c0,-1.27344 -0.44922,-2.12891 -0.84375,-2.8125c-0.51953,-0.84766 -1,-1.58984 -1,-2.4375c0,-0.94531 0.70703,-1.8125 1.71875,-1.8125c0.04688,0 0.07813,0 0.125,0c-1.83203,-1.67969 -4.25781,-2.6875 -6.9375,-2.6875zM25.03125,11.0625c0.04688,0.32813 0.0625,0.68359 0.0625,1.0625c0,1.04297 -0.19531,2.21875 -0.78125,3.6875l-3.125,9.09375c3.0625,-1.78516 5.09375,-5.10937 5.09375,-8.90625c0,-1.78906 -0.44531,-3.47266 -1.25,-4.9375zM6.59375,11.8125c-0.57031,1.27734 -0.875,2.69531 -0.875,4.1875c0,4.07422 2.34766,7.58203 5.78125,9.25zM16.1875,16.90625l-3.09375,8.96875c0.92188,0.26953 1.89453,0.40625 2.90625,0.40625c1.19922,0 2.33594,-0.1875 3.40625,-0.5625c-0.02734,-0.04297 -0.04297,-0.10547 -0.0625,-0.15625z"></path></g></g></svg>