<svg width="112" height="25" viewBox="0 0 112 25" fill="none" xmlns="http://www.w3.org/2000/svg">
<path d="M0.26 24L0.05 22.88C0.586667 22.6233 1.14667 22.4017 1.73 22.215C2.33667 22.005 2.93167 21.8183 3.515 21.655L3.55 24H0.26ZM3.9 24L4.005 21.795L8.835 22.355L8.8 24H3.9ZM20.07 24L19.86 22.88C20.3967 22.6233 20.9567 22.4017 21.54 22.215C22.1467 22.005 22.7417 21.8183 23.325 21.655L23.36 24H20.07ZM24.55 24L24.655 21.795L29.485 22.355L29.45 24H24.55ZM3.095 24L3.9 1.25H8.135L5.44 2.93L6.21 9.3L5.86 24H3.095ZM12.93 24.245L5.195 2.825L8.135 1.25L15.38 21.445L15.975 23.44L12.93 24.245ZM15.975 23.44L14.05 22.74L21.68 1.25L23.5 2.545L15.975 23.44ZM22.905 24L22.66 9.3L23.22 2.685L21.68 1.25H25.67L26.055 24H22.905ZM5.895 3.455L1.065 2.895L1.1 1.25H6L5.895 3.455ZM24.83 3.595L24.795 1.25H28.085L28.295 2.37C27.7817 2.60333 27.2217 2.825 26.615 3.035C26.0083 3.22167 25.4133 3.40833 24.83 3.595ZM30.7833 24L39.9883 1.705L41.9833 2.58L33.5833 24H30.7833ZM48.5633 24L39.6383 1.355L42.4033 0.409999L52.0983 24H48.5633ZM35.8583 16.965V14.83H46.0433V16.965H35.8583ZM28.9983 24L28.7883 22.88C29.3249 22.6233 29.8849 22.4017 30.4683 22.215C31.0749 22.005 31.6699 21.8183 32.2533 21.655L32.2883 24H28.9983ZM33.1283 24L33.2333 21.795L38.0633 22.355L38.0283 24H33.1283ZM44.4333 24L44.2233 22.88C44.7599 22.6233 45.3199 22.4017 45.9033 22.215C46.5099 22.005 47.1049 21.8183 47.6883 21.655L49.5433 24H44.4333ZM48.9133 24L49.0183 21.795L53.8483 22.355L53.8133 24H48.9133ZM60.2175 24V1.25H63.4725V24H60.2175ZM56.6125 24L56.4025 22.88C56.9391 22.6233 57.5925 22.4017 58.3625 22.215C59.1325 22.005 59.8091 21.8183 60.3925 21.655L60.4275 24H56.6125ZM62.5275 24L62.6325 21.795L67.4625 22.355L67.4275 24H62.5275ZM52.1325 6.955C52.0391 6.41833 51.9575 5.87 51.8875 5.31C51.8408 4.72667 51.8058 4.16667 51.7825 3.63C51.7591 3.09333 51.7475 2.60333 51.7475 2.16C51.7475 1.69333 51.7591 1.32 51.7825 1.04L54.5825 2.615L54.0225 6.955H52.1325ZM52.3775 3.525L51.7825 1.04C53.0658 1.08667 54.3841 1.12166 55.7375 1.145C57.0908 1.16833 58.4441 1.19167 59.7975 1.215C61.1741 1.215 62.5391 1.215 63.8925 1.215C65.2691 1.19167 66.6225 1.16833 67.9525 1.145C69.3058 1.12166 70.6241 1.08667 71.9075 1.04L71.3475 3.525L61.8625 3.175L52.3775 3.525ZM69.6675 6.955L69.1075 2.615L71.9075 1.04C71.9308 1.32 71.9425 1.69333 71.9425 2.16C71.9425 2.60333 71.9308 3.09333 71.9075 3.63C71.8841 4.16667 71.8375 4.72667 71.7675 5.31C71.7208 5.87 71.6508 6.41833 71.5575 6.955H69.6675ZM83.4545 24.7C82.1011 24.7 80.7828 24.455 79.4995 23.965C78.2161 23.475 77.0495 22.74 75.9995 21.76C74.9728 20.7567 74.1561 19.5083 73.5495 18.015C72.9428 16.5217 72.6395 14.7717 72.6395 12.765C72.6395 10.315 73.0945 8.18 74.0045 6.36C74.9378 4.51667 76.1978 3.09333 77.7845 2.09C79.3711 1.06333 81.1678 0.549999 83.1745 0.549999C84.6211 0.549999 85.9861 0.818333 87.2695 1.355C88.5761 1.89167 89.7428 2.685 90.7695 3.735C91.7961 4.785 92.6011 6.08 93.1845 7.62C93.7678 9.16 94.0595 10.9217 94.0595 12.905C94.0595 14.9117 93.7561 16.6617 93.1495 18.155C92.5661 19.625 91.7611 20.85 90.7345 21.83C89.7311 22.7867 88.5995 23.51 87.3395 24C86.0795 24.4667 84.7845 24.7 83.4545 24.7ZM84.0845 22.215C84.5045 22.215 84.9361 22.1917 85.3795 22.145C85.8228 22.075 86.2895 21.9817 86.7795 21.865C87.8761 21.165 88.7628 20.0333 89.4395 18.47C90.1161 16.8833 90.4545 15.0867 90.4545 13.08C90.4545 11.7967 90.3028 10.56 89.9995 9.37C89.6961 8.15667 89.2295 7.07167 88.5995 6.115C87.9695 5.15833 87.1645 4.4 86.1845 3.84C85.2278 3.25667 84.0845 2.965 82.7545 2.965C82.2411 2.965 81.7045 3.01167 81.1445 3.105C80.5845 3.19833 80.0011 3.35 79.3945 3.56C78.7645 4.05 78.2045 4.75 77.7145 5.66C77.2478 6.54667 76.8745 7.56167 76.5945 8.705C76.3378 9.84833 76.2095 11.0383 76.2095 12.275C76.2095 13.5117 76.3611 14.725 76.6645 15.915C76.9678 17.105 77.4345 18.1783 78.0645 19.135C78.6945 20.0683 79.4995 20.815 80.4795 21.375C81.4828 21.935 82.6845 22.215 84.0845 22.215ZM104.116 24.7C103.37 24.7 102.518 24.6067 101.561 24.42C100.605 24.2567 99.6948 24 98.8315 23.65C97.9682 23.2767 97.2682 22.8217 96.7315 22.285L97.5365 18.61C98.3532 19.7533 99.2865 20.605 100.336 21.165C101.386 21.725 102.448 22.0867 103.521 22.25C104.618 22.39 105.61 22.4133 106.496 22.32C107.196 21.9467 107.71 21.4217 108.036 20.745C108.363 20.0683 108.526 19.4033 108.526 18.75C108.526 17.9333 108.305 17.245 107.861 16.685C107.418 16.125 106.8 15.6233 106.006 15.18C105.236 14.7367 104.326 14.27 103.276 13.78C102.273 13.29 101.281 12.765 100.301 12.205C99.3215 11.6217 98.5048 10.91 97.8515 10.07C97.1982 9.20667 96.8715 8.145 96.8715 6.885C96.8715 5.50833 97.2565 4.35333 98.0265 3.42C98.8198 2.46333 99.8348 1.75167 101.071 1.285C102.331 0.794999 103.65 0.549999 105.026 0.549999C105.773 0.549999 106.496 0.608333 107.196 0.724999C107.92 0.841666 108.585 0.981665 109.191 1.145C109.798 1.30833 110.335 1.47167 110.801 1.635L109.016 5.065C108.06 4.03833 106.928 3.385 105.621 3.105C104.315 2.825 103.043 2.77833 101.806 2.965C101.246 3.29167 100.826 3.75833 100.546 4.365C100.266 4.94833 100.126 5.54333 100.126 6.15C100.126 6.92 100.348 7.57333 100.791 8.11C101.258 8.62333 101.876 9.10167 102.646 9.545C103.44 9.965 104.338 10.4083 105.341 10.875C106.438 11.3883 107.476 11.9483 108.456 12.555C109.46 13.1383 110.276 13.8617 110.906 14.725C111.536 15.565 111.851 16.65 111.851 17.98C111.851 19.4033 111.478 20.6167 110.731 21.62C110.008 22.6233 109.063 23.3933 107.896 23.93C106.73 24.4433 105.47 24.7 104.116 24.7ZM99.6365 22.285H96.7315C96.7082 21.8883 96.6965 21.3633 96.6965 20.71C96.6965 20.0567 96.7315 19.345 96.8015 18.575C96.8715 17.805 96.9648 17.07 97.0815 16.37H98.9715L99.6365 22.285ZM108.561 7.55L108.001 2.3L110.801 1.635C110.848 2.00833 110.86 2.53333 110.836 3.21C110.836 3.86333 110.801 4.575 110.731 5.345C110.685 6.09166 110.591 6.82667 110.451 7.55H108.561Z" fill="#8F7A32"/>
</svg>
