<svg width="520" height="411" viewBox="0 0 520 411" fill="none" xmlns="http://www.w3.org/2000/svg">
<g filter="url(#filter0_d_142_78)">
<rect width="512" height="403" rx="20" fill="#0C0B0A"/>
</g>
<g filter="url(#filter1_d_142_78)">
<rect x="30" y="47" width="160" height="50" rx="10" fill="#353535"/>
<path d="M56.25 67.625H51.25C48.8337 67.625 46.875 65.6662 46.875 63.25C46.875 60.8337 48.8337 58.875 51.25 58.875H56.25V67.625Z" fill="#8F7A32"/>
<path d="M55.625 76.375H51.25C48.8337 76.375 46.875 74.4162 46.875 72C46.875 69.5837 48.8337 67.625 51.25 67.625H55.625V76.375Z" fill="#8F7A32"/>
<path d="M51.25 85.125C48.8337 85.125 46.875 83.1662 46.875 80.75C46.875 78.3337 48.8337 76.375 51.25 76.375H55.625V80.75C55.625 83.1662 53.6662 85.125 51.25 85.125Z" fill="#8F7A32"/>
<path d="M60 67.625H55.625V58.875H60C62.4162 58.875 64.375 60.8337 64.375 63.25C64.375 65.6662 62.4162 67.625 60 67.625Z" fill="#8F7A32"/>
<path d="M60 76.375C62.4162 76.375 64.375 74.4162 64.375 72C64.375 69.5838 62.4162 67.625 60 67.625C57.5838 67.625 55.625 69.5838 55.625 72C55.625 74.4162 57.5838 76.375 60 76.375Z" fill="#8F7A32"/>
<path d="M88.478 65.454V66.786H83.024V71.016H87.452V72.348H83.024V78H81.386V65.454H88.478ZM91.3023 66.534C90.9903 66.534 90.7263 66.426 90.5103 66.21C90.2943 65.994 90.1863 65.73 90.1863 65.418C90.1863 65.106 90.2943 64.842 90.5103 64.626C90.7263 64.41 90.9903 64.302 91.3023 64.302C91.6023 64.302 91.8543 64.41 92.0583 64.626C92.2743 64.842 92.3823 65.106 92.3823 65.418C92.3823 65.73 92.2743 65.994 92.0583 66.21C91.8543 66.426 91.6023 66.534 91.3023 66.534ZM92.0943 68.136V78H90.4563V68.136H92.0943ZM98.954 67.974C99.806 67.974 100.55 68.16 101.186 68.532C101.834 68.904 102.314 69.372 102.626 69.936V68.136H104.282V78.216C104.282 79.116 104.09 79.914 103.706 80.61C103.322 81.318 102.77 81.87 102.05 82.266C101.342 82.662 100.514 82.86 99.566 82.86C98.27 82.86 97.19 82.554 96.326 81.942C95.462 81.33 94.952 80.496 94.796 79.44H96.416C96.596 80.04 96.968 80.52 97.532 80.88C98.096 81.252 98.774 81.438 99.566 81.438C100.466 81.438 101.198 81.156 101.762 80.592C102.338 80.028 102.626 79.236 102.626 78.216V76.146C102.302 76.722 101.822 77.202 101.186 77.586C100.55 77.97 99.806 78.162 98.954 78.162C98.078 78.162 97.28 77.946 96.56 77.514C95.852 77.082 95.294 76.476 94.886 75.696C94.478 74.916 94.274 74.028 94.274 73.032C94.274 72.024 94.478 71.142 94.886 70.386C95.294 69.618 95.852 69.024 96.56 68.604C97.28 68.184 98.078 67.974 98.954 67.974ZM102.626 73.05C102.626 72.306 102.476 71.658 102.176 71.106C101.876 70.554 101.468 70.134 100.952 69.846C100.448 69.546 99.89 69.396 99.278 69.396C98.666 69.396 98.108 69.54 97.604 69.828C97.1 70.116 96.698 70.536 96.398 71.088C96.098 71.64 95.948 72.288 95.948 73.032C95.948 73.788 96.098 74.448 96.398 75.012C96.698 75.564 97.1 75.99 97.604 76.29C98.108 76.578 98.666 76.722 99.278 76.722C99.89 76.722 100.448 76.578 100.952 76.29C101.468 75.99 101.876 75.564 102.176 75.012C102.476 74.448 102.626 73.794 102.626 73.05ZM118.912 67.956C119.68 67.956 120.364 68.118 120.964 68.442C121.564 68.754 122.038 69.228 122.386 69.864C122.734 70.5 122.908 71.274 122.908 72.186V78H121.288V72.42C121.288 71.436 121.042 70.686 120.55 70.17C120.07 69.642 119.416 69.378 118.588 69.378C117.736 69.378 117.058 69.654 116.554 70.206C116.05 70.746 115.798 71.532 115.798 72.564V78H114.178V72.42C114.178 71.436 113.932 70.686 113.44 70.17C112.96 69.642 112.306 69.378 111.478 69.378C110.626 69.378 109.948 69.654 109.444 70.206C108.94 70.746 108.688 71.532 108.688 72.564V78H107.05V68.136H108.688V69.558C109.012 69.042 109.444 68.646 109.984 68.37C110.536 68.094 111.142 67.956 111.802 67.956C112.63 67.956 113.362 68.142 113.998 68.514C114.634 68.886 115.108 69.432 115.42 70.152C115.696 69.456 116.152 68.916 116.788 68.532C117.424 68.148 118.132 67.956 118.912 67.956ZM124.983 73.032C124.983 72.024 125.187 71.142 125.595 70.386C126.003 69.618 126.561 69.024 127.269 68.604C127.989 68.184 128.787 67.974 129.663 67.974C130.527 67.974 131.277 68.16 131.913 68.532C132.549 68.904 133.023 69.372 133.335 69.936V68.136H134.991V78H133.335V76.164C133.011 76.74 132.525 77.22 131.877 77.604C131.241 77.976 130.497 78.162 129.645 78.162C128.769 78.162 127.977 77.946 127.269 77.514C126.561 77.082 126.003 76.476 125.595 75.696C125.187 74.916 124.983 74.028 124.983 73.032ZM133.335 73.05C133.335 72.306 133.185 71.658 132.885 71.106C132.585 70.554 132.177 70.134 131.661 69.846C131.157 69.546 130.599 69.396 129.987 69.396C129.375 69.396 128.817 69.54 128.313 69.828C127.809 70.116 127.407 70.536 127.107 71.088C126.807 71.64 126.657 72.288 126.657 73.032C126.657 73.788 126.807 74.448 127.107 75.012C127.407 75.564 127.809 75.99 128.313 76.29C128.817 76.578 129.375 76.722 129.987 76.722C130.599 76.722 131.157 76.578 131.661 76.29C132.177 75.99 132.585 75.564 132.885 75.012C133.185 74.448 133.335 73.794 133.335 73.05Z" fill="white"/>
</g>
<g filter="url(#filter2_d_142_78)">
<rect x="30" y="302" width="160" height="50" rx="10" fill="#353535"/>
<path d="M87.992 333L85.004 327.87H83.024V333H81.386V320.454H85.436C86.384 320.454 87.182 320.616 87.83 320.94C88.49 321.264 88.982 321.702 89.306 322.254C89.63 322.806 89.792 323.436 89.792 324.144C89.792 325.008 89.54 325.77 89.036 326.43C88.544 327.09 87.8 327.528 86.804 327.744L89.954 333H87.992ZM83.024 326.556H85.436C86.324 326.556 86.99 326.34 87.434 325.908C87.878 325.464 88.1 324.876 88.1 324.144C88.1 323.4 87.878 322.824 87.434 322.416C87.002 322.008 86.336 321.804 85.436 321.804H83.024V326.556ZM101.337 327.69C101.337 328.002 101.319 328.332 101.283 328.68H93.3992C93.4592 329.652 93.7892 330.414 94.3892 330.966C95.0012 331.506 95.7392 331.776 96.6032 331.776C97.3112 331.776 97.8992 331.614 98.3672 331.29C98.8472 330.954 99.1832 330.51 99.3752 329.958H101.139C100.875 330.906 100.347 331.68 99.5552 332.28C98.7632 332.868 97.7792 333.162 96.6032 333.162C95.6672 333.162 94.8272 332.952 94.0832 332.532C93.3512 332.112 92.7752 331.518 92.3552 330.75C91.9352 329.97 91.7252 329.07 91.7252 328.05C91.7252 327.03 91.9292 326.136 92.3372 325.368C92.7452 324.6 93.3152 324.012 94.0472 323.604C94.7912 323.184 95.6432 322.974 96.6032 322.974C97.5392 322.974 98.3672 323.178 99.0872 323.586C99.8072 323.994 100.359 324.558 100.743 325.278C101.139 325.986 101.337 326.79 101.337 327.69ZM99.6452 327.348C99.6452 326.724 99.5072 326.19 99.2312 325.746C98.9552 325.29 98.5772 324.948 98.0972 324.72C97.6292 324.48 97.1072 324.36 96.5312 324.36C95.7032 324.36 94.9952 324.624 94.4072 325.152C93.8312 325.68 93.5012 326.412 93.4172 327.348H99.6452ZM102.887 328.032C102.887 327.024 103.091 326.142 103.499 325.386C103.907 324.618 104.465 324.024 105.173 323.604C105.893 323.184 106.691 322.974 107.567 322.974C108.431 322.974 109.181 323.16 109.817 323.532C110.453 323.904 110.927 324.372 111.239 324.936V323.136H112.895V333H111.239V331.164C110.915 331.74 110.429 332.22 109.781 332.604C109.145 332.976 108.401 333.162 107.549 333.162C106.673 333.162 105.881 332.946 105.173 332.514C104.465 332.082 103.907 331.476 103.499 330.696C103.091 329.916 102.887 329.028 102.887 328.032ZM111.239 328.05C111.239 327.306 111.089 326.658 110.789 326.106C110.489 325.554 110.081 325.134 109.565 324.846C109.061 324.546 108.503 324.396 107.891 324.396C107.279 324.396 106.721 324.54 106.217 324.828C105.713 325.116 105.311 325.536 105.011 326.088C104.711 326.64 104.561 327.288 104.561 328.032C104.561 328.788 104.711 329.448 105.011 330.012C105.311 330.564 105.713 330.99 106.217 331.29C106.721 331.578 107.279 331.722 107.891 331.722C108.503 331.722 109.061 331.578 109.565 331.29C110.081 330.99 110.489 330.564 110.789 330.012C111.089 329.448 111.239 328.794 111.239 328.05ZM115.051 328.05C115.051 327.03 115.255 326.142 115.663 325.386C116.071 324.618 116.635 324.024 117.355 323.604C118.087 323.184 118.921 322.974 119.857 322.974C121.069 322.974 122.065 323.268 122.845 323.856C123.637 324.444 124.159 325.26 124.411 326.304H122.647C122.479 325.704 122.149 325.23 121.657 324.882C121.177 324.534 120.577 324.36 119.857 324.36C118.921 324.36 118.165 324.684 117.589 325.332C117.013 325.968 116.725 326.874 116.725 328.05C116.725 329.238 117.013 330.156 117.589 330.804C118.165 331.452 118.921 331.776 119.857 331.776C120.577 331.776 121.177 331.608 121.657 331.272C122.137 330.936 122.467 330.456 122.647 329.832H124.411C124.147 330.84 123.619 331.65 122.827 332.262C122.035 332.862 121.045 333.162 119.857 333.162C118.921 333.162 118.087 332.952 117.355 332.532C116.635 332.112 116.071 331.518 115.663 330.75C115.255 329.982 115.051 329.082 115.051 328.05ZM128.595 324.486V330.3C128.595 330.78 128.697 331.122 128.901 331.326C129.105 331.518 129.459 331.614 129.963 331.614H131.169V333H129.693C128.781 333 128.097 332.79 127.641 332.37C127.185 331.95 126.957 331.26 126.957 330.3V324.486H125.679V323.136H126.957V320.652H128.595V323.136H131.169V324.486H128.595Z" fill="white"/>
<path d="M55 333.675C46.4485 333.675 40 330.878 40 327C40 323.122 46.4485 320.25 55 320.25C63.5515 320.25 70 323.122 70 327C70 330.878 63.5515 333.675 55 333.675ZM55 322.449C47.7032 322.449 42.1562 324.898 42.1562 327.047C42.1562 329.196 47.7032 331.551 55 331.551C62.2968 331.551 67.8438 329.102 67.8438 326.953C67.8438 324.804 62.2968 322.449 55 322.449Z" fill="#8F7232"/>
<path d="M49.3015 340.5C48.6032 340.5 47.9657 340.338 47.4055 340.018C46.4905 339.496 45.8342 338.572 45.5065 337.347C44.647 334.135 46.0337 328.735 49.0412 323.589C52.57 317.555 57.2552 313.502 60.6992 313.502C61.3967 313.502 62.0342 313.664 62.5945 313.984C63.508 314.505 64.165 315.427 64.4927 316.652C65.353 319.864 63.9655 325.264 60.9565 330.411C57.4307 336.445 52.7462 340.5 49.3015 340.5ZM60.6992 315.752C58.5332 315.752 54.3925 318.897 50.9837 324.724C47.8915 330.016 46.9847 334.406 47.6807 336.765C47.869 337.402 48.1345 337.843 48.5215 338.064C50.2922 339.075 55.1282 335.926 59.0147 329.276C62.1085 323.983 63.1097 319.687 62.3192 317.235C62.116 316.604 61.8662 316.159 61.48 315.939C61.2602 315.813 61.0045 315.752 60.6992 315.752Z" fill="#8F7232"/>
<path d="M60.6992 340.498C57.2515 340.497 52.567 336.444 49.0412 330.411C46.0337 325.265 44.647 319.864 45.5065 316.653C45.8342 315.428 46.4905 314.504 47.4047 313.982C47.9657 313.662 48.6032 313.5 49.3 313.5C52.7462 313.5 57.43 317.555 60.9565 323.589C63.9647 328.735 65.3515 334.136 64.492 337.348C64.1635 338.573 63.5072 339.495 62.5945 340.016C62.0342 340.336 61.396 340.498 60.6992 340.498ZM49.3 315.75C48.9947 315.75 48.7397 315.812 48.52 315.936C48.1337 316.157 47.8645 316.597 47.68 317.235C46.984 319.641 47.8907 323.984 50.983 329.276C54.3887 335.103 58.5302 338.248 60.6985 338.248C61.0045 338.248 61.2595 338.186 61.4792 338.061C61.8647 337.842 62.1415 337.404 62.3177 336.765C62.968 334.406 62.107 330.015 59.014 324.724C55.6082 318.896 51.4675 315.75 49.3 315.75Z" fill="#8F7232"/>
<path d="M57.625 327C57.625 328.451 56.4512 329.625 55 329.625C53.5488 329.625 52.375 328.451 52.375 327C52.375 325.549 53.5488 324.375 55 324.375C56.4512 324.375 57.625 325.549 57.625 327Z" fill="#9D8D40"/>
<path d="M55 330C53.3455 330 52 328.655 52 327C52 325.345 53.3455 324 55 324C56.6545 324 58 325.345 58 327C58 328.655 56.6545 330 55 330ZM55 324.75C53.7595 324.75 52.75 325.759 52.75 327C52.75 328.241 53.7595 329.25 55 329.25C56.2405 329.25 57.25 328.241 57.25 327C57.25 325.759 56.2405 324.75 55 324.75Z" fill="#8F7232"/>
<path d="M55 333.051C47.0095 333.051 40.75 330.393 40.75 327C40.75 323.607 47.0095 320.949 55 320.949C62.9905 320.949 69.25 323.607 69.25 327C69.25 330.393 62.9905 333.051 55 333.051ZM55 321.699C47.6823 321.699 41.5 324.127 41.5 327C41.5 329.873 47.6823 332.301 55 332.301C62.3177 332.301 68.5 329.874 68.5 327C68.5 324.126 62.3177 321.699 55 321.699Z" fill="#9D8D40"/>
<path d="M49.3015 339.75C48.7352 339.75 48.223 339.621 47.7767 339.367C47.0297 338.94 46.51 338.195 46.2302 337.153C45.4195 334.125 46.777 328.949 49.6877 323.967C53.0342 318.247 57.562 314.252 60.6992 314.252C61.2647 314.252 61.7777 314.381 62.2232 314.635C62.9695 315.061 63.4892 315.805 63.769 316.846C64.5797 319.874 63.2222 325.05 60.31 330.033C56.9657 335.754 52.4395 339.75 49.3015 339.75ZM60.6992 315.002C57.8612 315.002 53.503 318.931 50.3365 324.346C47.5652 329.089 46.2062 334.158 46.9555 336.959C47.1812 337.801 47.5825 338.392 48.1495 338.716C48.4802 338.904 48.8672 339 49.3007 339C52.1395 339 56.497 335.07 59.6612 329.654C62.434 324.91 63.7937 319.84 63.043 317.041C62.818 316.2 62.4167 315.61 61.8505 315.287C61.5197 315.098 61.1327 315.002 60.6992 315.002Z" fill="#9D8D40"/>
<path d="M60.6993 339.748C57.559 339.747 53.0313 335.753 49.6885 330.033C46.777 325.051 45.4203 319.875 46.231 316.847C46.51 315.805 47.0298 315.06 47.7775 314.633C48.223 314.379 48.7353 314.25 49.3 314.25C52.4388 314.25 56.9658 318.246 60.3093 323.967C63.2215 328.949 64.5783 334.124 63.7668 337.153C63.4885 338.195 62.9688 338.939 62.2225 339.365C61.777 339.619 61.2648 339.748 60.6993 339.748ZM49.3 315C48.8673 315 48.4795 315.096 48.1488 315.284C47.5818 315.608 47.1805 316.199 46.9548 317.041C46.2055 319.841 47.5645 324.91 50.3358 329.654C53.5 335.068 57.859 338.997 60.6993 338.998C61.1328 338.998 61.5205 338.902 61.8513 338.713C62.4168 338.39 62.818 337.8 63.043 336.959C63.793 334.158 62.434 329.089 59.662 324.346C56.497 318.931 52.1403 315 49.3 315Z" fill="#9D8D40"/>
</g>
<g filter="url(#filter3_d_142_78)">
<rect x="29" y="132" width="160" height="50" rx="10" fill="#353535"/>
<path d="M88.108 150.454V151.786H84.688V163H83.05V151.786H79.612V150.454H88.108ZM98.6203 153.136L92.6803 167.644H90.9883L92.9323 162.892L88.9543 153.136H90.7723L93.8683 161.128L96.9283 153.136H98.6203ZM101.905 154.954C102.229 154.39 102.709 153.922 103.345 153.55C103.993 153.166 104.743 152.974 105.595 152.974C106.471 152.974 107.263 153.184 107.971 153.604C108.691 154.024 109.255 154.618 109.663 155.386C110.071 156.142 110.275 157.024 110.275 158.032C110.275 159.028 110.071 159.916 109.663 160.696C109.255 161.476 108.691 162.082 107.971 162.514C107.263 162.946 106.471 163.162 105.595 163.162C104.755 163.162 104.011 162.976 103.363 162.604C102.727 162.22 102.241 161.746 101.905 161.182V167.68H100.267V153.136H101.905V154.954ZM108.601 158.032C108.601 157.288 108.451 156.64 108.151 156.088C107.851 155.536 107.443 155.116 106.927 154.828C106.423 154.54 105.865 154.396 105.253 154.396C104.653 154.396 104.095 154.546 103.579 154.846C103.075 155.134 102.667 155.56 102.355 156.124C102.055 156.676 101.905 157.318 101.905 158.05C101.905 158.794 102.055 159.448 102.355 160.012C102.667 160.564 103.075 160.99 103.579 161.29C104.095 161.578 104.653 161.722 105.253 161.722C105.865 161.722 106.423 161.578 106.927 161.29C107.443 160.99 107.851 160.564 108.151 160.012C108.451 159.448 108.601 158.788 108.601 158.032ZM121.431 157.69C121.431 158.002 121.413 158.332 121.377 158.68H113.493C113.553 159.652 113.883 160.414 114.483 160.966C115.095 161.506 115.833 161.776 116.697 161.776C117.405 161.776 117.993 161.614 118.461 161.29C118.941 160.954 119.277 160.51 119.469 159.958H121.233C120.969 160.906 120.441 161.68 119.649 162.28C118.857 162.868 117.873 163.162 116.697 163.162C115.761 163.162 114.921 162.952 114.177 162.532C113.445 162.112 112.869 161.518 112.449 160.75C112.029 159.97 111.819 159.07 111.819 158.05C111.819 157.03 112.023 156.136 112.431 155.368C112.839 154.6 113.409 154.012 114.141 153.604C114.885 153.184 115.737 152.974 116.697 152.974C117.633 152.974 118.461 153.178 119.181 153.586C119.901 153.994 120.453 154.558 120.837 155.278C121.233 155.986 121.431 156.79 121.431 157.69ZM119.739 157.348C119.739 156.724 119.601 156.19 119.325 155.746C119.049 155.29 118.671 154.948 118.191 154.72C117.723 154.48 117.201 154.36 116.625 154.36C115.797 154.36 115.089 154.624 114.501 155.152C113.925 155.68 113.595 156.412 113.511 157.348H119.739ZM127.571 163.126C126.743 163.126 125.999 162.982 125.339 162.694C124.691 162.394 124.181 161.986 123.809 161.47C123.437 160.942 123.245 160.336 123.233 159.652H124.979C125.039 160.24 125.279 160.738 125.699 161.146C126.131 161.542 126.755 161.74 127.571 161.74C128.351 161.74 128.963 161.548 129.407 161.164C129.863 160.768 130.091 160.264 130.091 159.652C130.091 159.172 129.959 158.782 129.695 158.482C129.431 158.182 129.101 157.954 128.705 157.798C128.309 157.642 127.775 157.474 127.103 157.294C126.275 157.078 125.609 156.862 125.105 156.646C124.613 156.43 124.187 156.094 123.827 155.638C123.479 155.17 123.305 154.546 123.305 153.766C123.305 153.082 123.479 152.476 123.827 151.948C124.175 151.42 124.661 151.012 125.285 150.724C125.921 150.436 126.647 150.292 127.463 150.292C128.639 150.292 129.599 150.586 130.343 151.174C131.099 151.762 131.525 152.542 131.621 153.514H129.821C129.761 153.034 129.509 152.614 129.065 152.254C128.621 151.882 128.033 151.696 127.301 151.696C126.617 151.696 126.059 151.876 125.627 152.236C125.195 152.584 124.979 153.076 124.979 153.712C124.979 154.168 125.105 154.54 125.357 154.828C125.621 155.116 125.939 155.338 126.311 155.494C126.695 155.638 127.229 155.806 127.913 155.998C128.741 156.226 129.407 156.454 129.911 156.682C130.415 156.898 130.847 157.24 131.207 157.708C131.567 158.164 131.747 158.788 131.747 159.58C131.747 160.192 131.585 160.768 131.261 161.308C130.937 161.848 130.457 162.286 129.821 162.622C129.185 162.958 128.435 163.126 127.571 163.126ZM133.545 158.05C133.545 157.03 133.749 156.142 134.157 155.386C134.565 154.618 135.129 154.024 135.849 153.604C136.581 153.184 137.415 152.974 138.351 152.974C139.563 152.974 140.559 153.268 141.339 153.856C142.131 154.444 142.653 155.26 142.905 156.304H141.141C140.973 155.704 140.643 155.23 140.151 154.882C139.671 154.534 139.071 154.36 138.351 154.36C137.415 154.36 136.659 154.684 136.083 155.332C135.507 155.968 135.219 156.874 135.219 158.05C135.219 159.238 135.507 160.156 136.083 160.804C136.659 161.452 137.415 161.776 138.351 161.776C139.071 161.776 139.671 161.608 140.151 161.272C140.631 160.936 140.961 160.456 141.141 159.832H142.905C142.641 160.84 142.113 161.65 141.321 162.262C140.529 162.862 139.539 163.162 138.351 163.162C137.415 163.162 136.581 162.952 135.849 162.532C135.129 162.112 134.565 161.518 134.157 160.75C133.749 159.982 133.545 159.082 133.545 158.05ZM146.729 154.738C147.017 154.174 147.425 153.736 147.953 153.424C148.493 153.112 149.147 152.956 149.915 152.956V154.648H149.483C147.647 154.648 146.729 155.644 146.729 157.636V163H145.091V153.136H146.729V154.738ZM152.652 151.534C152.34 151.534 152.076 151.426 151.86 151.21C151.644 150.994 151.536 150.73 151.536 150.418C151.536 150.106 151.644 149.842 151.86 149.626C152.076 149.41 152.34 149.302 152.652 149.302C152.952 149.302 153.204 149.41 153.408 149.626C153.624 149.842 153.732 150.106 153.732 150.418C153.732 150.73 153.624 150.994 153.408 151.21C153.204 151.426 152.952 151.534 152.652 151.534ZM153.444 153.136V163H151.806V153.136H153.444ZM157.874 154.954C158.198 154.39 158.678 153.922 159.314 153.55C159.962 153.166 160.712 152.974 161.564 152.974C162.44 152.974 163.232 153.184 163.94 153.604C164.66 154.024 165.224 154.618 165.632 155.386C166.04 156.142 166.244 157.024 166.244 158.032C166.244 159.028 166.04 159.916 165.632 160.696C165.224 161.476 164.66 162.082 163.94 162.514C163.232 162.946 162.44 163.162 161.564 163.162C160.724 163.162 159.98 162.976 159.332 162.604C158.696 162.22 158.21 161.746 157.874 161.182V167.68H156.236V153.136H157.874V154.954ZM164.57 158.032C164.57 157.288 164.42 156.64 164.12 156.088C163.82 155.536 163.412 155.116 162.896 154.828C162.392 154.54 161.834 154.396 161.222 154.396C160.622 154.396 160.064 154.546 159.548 154.846C159.044 155.134 158.636 155.56 158.324 156.124C158.024 156.676 157.874 157.318 157.874 158.05C157.874 158.794 158.024 159.448 158.324 160.012C158.636 160.564 159.044 160.99 159.548 161.29C160.064 161.578 160.622 161.722 161.222 161.722C161.834 161.722 162.392 161.578 162.896 161.29C163.412 160.99 163.82 160.564 164.12 160.012C164.42 159.448 164.57 158.788 164.57 158.032ZM170.398 154.486V160.3C170.398 160.78 170.5 161.122 170.704 161.326C170.908 161.518 171.262 161.614 171.766 161.614H172.972V163H171.496C170.584 163 169.9 162.79 169.444 162.37C168.988 161.95 168.76 161.26 168.76 160.3V154.486H167.482V153.136H168.76V150.652H170.398V153.136H172.972V154.486H170.398Z" fill="white"/>
<path d="M66 144.4H42C41.6682 144.4 41.4 144.669 41.4 145V169C41.4 169.331 41.6682 169.6 42 169.6H66C66.3318 169.6 66.6 169.331 66.6 169V145C66.6 144.669 66.3318 144.4 66 144.4ZM56.4 157.867H53.4V167.2H51V157.867H48V155.8H56.4V157.867ZM57.0726 166.667V164.172C57.0726 164.172 58.4352 165.2 60.0702 165.2C61.7052 165.2 61.6422 164.13 61.6422 163.984C61.6422 162.432 57.0096 162.432 57.0096 158.995C57.0096 154.32 63.7596 156.165 63.7596 156.165L63.6756 158.387C63.6756 158.387 62.5434 157.632 61.2648 157.632C59.9862 157.632 59.5248 158.24 59.5248 158.89C59.5248 160.567 64.1994 160.4 64.1994 163.775C64.2 168.973 57.0726 166.667 57.0726 166.667Z" fill="#9D8D40"/>
</g>
<g filter="url(#filter4_d_142_78)">
<rect x="29" y="217" width="160" height="50" rx="10" fill="#353535"/>
<path d="M96.154 235.454L92.518 248H90.682L87.766 237.902L84.742 248L82.924 248.018L79.414 235.454H81.16L83.896 246.092L86.92 235.454H88.756L91.636 246.056L94.39 235.454H96.154ZM102.249 248.162C101.325 248.162 100.485 247.952 99.7285 247.532C98.9845 247.112 98.3965 246.518 97.9645 245.75C97.5445 244.97 97.3345 244.07 97.3345 243.05C97.3345 242.042 97.5505 241.154 97.9825 240.386C98.4265 239.606 99.0265 239.012 99.7825 238.604C100.539 238.184 101.385 237.974 102.321 237.974C103.257 237.974 104.103 238.184 104.859 238.604C105.615 239.012 106.209 239.6 106.641 240.368C107.085 241.136 107.307 242.03 107.307 243.05C107.307 244.07 107.079 244.97 106.623 245.75C106.179 246.518 105.573 247.112 104.805 247.532C104.037 247.952 103.185 248.162 102.249 248.162ZM102.249 246.722C102.837 246.722 103.389 246.584 103.905 246.308C104.421 246.032 104.835 245.618 105.147 245.066C105.471 244.514 105.633 243.842 105.633 243.05C105.633 242.258 105.477 241.586 105.165 241.034C104.853 240.482 104.445 240.074 103.941 239.81C103.437 239.534 102.891 239.396 102.303 239.396C101.703 239.396 101.151 239.534 100.647 239.81C100.155 240.074 99.7585 240.482 99.4585 241.034C99.1585 241.586 99.0085 242.258 99.0085 243.05C99.0085 243.854 99.1525 244.532 99.4405 245.084C99.7405 245.636 100.137 246.05 100.629 246.326C101.121 246.59 101.661 246.722 102.249 246.722ZM111.098 239.738C111.386 239.174 111.794 238.736 112.322 238.424C112.862 238.112 113.516 237.956 114.284 237.956V239.648H113.852C112.016 239.648 111.098 240.644 111.098 242.636V248H109.46V238.136H111.098V239.738ZM115.563 243.032C115.563 242.024 115.767 241.142 116.175 240.386C116.583 239.618 117.141 239.024 117.849 238.604C118.569 238.184 119.373 237.974 120.261 237.974C121.029 237.974 121.743 238.154 122.403 238.514C123.063 238.862 123.567 239.324 123.915 239.9V234.68H125.571V248H123.915V246.146C123.591 246.734 123.111 247.22 122.475 247.604C121.839 247.976 121.095 248.162 120.243 248.162C119.367 248.162 118.569 247.946 117.849 247.514C117.141 247.082 116.583 246.476 116.175 245.696C115.767 244.916 115.563 244.028 115.563 243.032ZM123.915 243.05C123.915 242.306 123.765 241.658 123.465 241.106C123.165 240.554 122.757 240.134 122.241 239.846C121.737 239.546 121.179 239.396 120.567 239.396C119.955 239.396 119.397 239.54 118.893 239.828C118.389 240.116 117.987 240.536 117.687 241.088C117.387 241.64 117.237 242.288 117.237 243.032C117.237 243.788 117.387 244.448 117.687 245.012C117.987 245.564 118.389 245.99 118.893 246.29C119.397 246.578 119.955 246.722 120.567 246.722C121.179 246.722 121.737 246.578 122.241 246.29C122.757 245.99 123.165 245.564 123.465 245.012C123.765 244.448 123.915 243.794 123.915 243.05ZM136.727 239.126C136.727 240.17 136.367 241.04 135.647 241.736C134.939 242.42 133.853 242.762 132.389 242.762H129.977V248H128.339V235.454H132.389C133.805 235.454 134.879 235.796 135.611 236.48C136.355 237.164 136.727 238.046 136.727 239.126ZM132.389 241.412C133.301 241.412 133.973 241.214 134.405 240.818C134.837 240.422 135.053 239.858 135.053 239.126C135.053 237.578 134.165 236.804 132.389 236.804H129.977V241.412H132.389ZM140.401 239.738C140.689 239.174 141.097 238.736 141.625 238.424C142.165 238.112 142.819 237.956 143.587 237.956V239.648H143.155C141.319 239.648 140.401 240.644 140.401 242.636V248H138.763V238.136H140.401V239.738ZM154.478 242.69C154.478 243.002 154.46 243.332 154.424 243.68H146.54C146.6 244.652 146.93 245.414 147.53 245.966C148.142 246.506 148.88 246.776 149.744 246.776C150.452 246.776 151.04 246.614 151.508 246.29C151.988 245.954 152.324 245.51 152.516 244.958H154.28C154.016 245.906 153.488 246.68 152.696 247.28C151.904 247.868 150.92 248.162 149.744 248.162C148.808 248.162 147.968 247.952 147.224 247.532C146.492 247.112 145.916 246.518 145.496 245.75C145.076 244.97 144.866 244.07 144.866 243.05C144.866 242.03 145.07 241.136 145.478 240.368C145.886 239.6 146.456 239.012 147.188 238.604C147.932 238.184 148.784 237.974 149.744 237.974C150.68 237.974 151.508 238.178 152.228 238.586C152.948 238.994 153.5 239.558 153.884 240.278C154.28 240.986 154.478 241.79 154.478 242.69ZM152.786 242.348C152.786 241.724 152.648 241.19 152.372 240.746C152.096 240.29 151.718 239.948 151.238 239.72C150.77 239.48 150.248 239.36 149.672 239.36C148.844 239.36 148.136 239.624 147.548 240.152C146.972 240.68 146.642 241.412 146.558 242.348H152.786ZM160.132 248.162C159.376 248.162 158.698 248.036 158.098 247.784C157.498 247.52 157.024 247.16 156.676 246.704C156.328 246.236 156.136 245.702 156.1 245.102H157.792C157.84 245.594 158.068 245.996 158.476 246.308C158.896 246.62 159.442 246.776 160.114 246.776C160.738 246.776 161.23 246.638 161.59 246.362C161.95 246.086 162.13 245.738 162.13 245.318C162.13 244.886 161.938 244.568 161.554 244.364C161.17 244.148 160.576 243.938 159.772 243.734C159.04 243.542 158.44 243.35 157.972 243.158C157.516 242.954 157.12 242.66 156.784 242.276C156.46 241.88 156.298 241.364 156.298 240.728C156.298 240.224 156.448 239.762 156.748 239.342C157.048 238.922 157.474 238.592 158.026 238.352C158.578 238.1 159.208 237.974 159.916 237.974C161.008 237.974 161.89 238.25 162.562 238.802C163.234 239.354 163.594 240.11 163.642 241.07H162.004C161.968 240.554 161.758 240.14 161.374 239.828C161.002 239.516 160.498 239.36 159.862 239.36C159.274 239.36 158.806 239.486 158.458 239.738C158.11 239.99 157.936 240.32 157.936 240.728C157.936 241.052 158.038 241.322 158.242 241.538C158.458 241.742 158.722 241.91 159.034 242.042C159.358 242.162 159.802 242.3 160.366 242.456C161.074 242.648 161.65 242.84 162.094 243.032C162.538 243.212 162.916 243.488 163.228 243.86C163.552 244.232 163.72 244.718 163.732 245.318C163.732 245.858 163.582 246.344 163.282 246.776C162.982 247.208 162.556 247.55 162.004 247.802C161.464 248.042 160.84 248.162 160.132 248.162ZM169.536 248.162C168.78 248.162 168.102 248.036 167.502 247.784C166.902 247.52 166.428 247.16 166.08 246.704C165.732 246.236 165.54 245.702 165.504 245.102H167.196C167.244 245.594 167.472 245.996 167.88 246.308C168.3 246.62 168.846 246.776 169.518 246.776C170.142 246.776 170.634 246.638 170.994 246.362C171.354 246.086 171.534 245.738 171.534 245.318C171.534 244.886 171.342 244.568 170.958 244.364C170.574 244.148 169.98 243.938 169.176 243.734C168.444 243.542 167.844 243.35 167.376 243.158C166.92 242.954 166.524 242.66 166.188 242.276C165.864 241.88 165.702 241.364 165.702 240.728C165.702 240.224 165.852 239.762 166.152 239.342C166.452 238.922 166.878 238.592 167.43 238.352C167.982 238.1 168.612 237.974 169.32 237.974C170.412 237.974 171.294 238.25 171.966 238.802C172.638 239.354 172.998 240.11 173.046 241.07H171.408C171.372 240.554 171.162 240.14 170.778 239.828C170.406 239.516 169.902 239.36 169.266 239.36C168.678 239.36 168.21 239.486 167.862 239.738C167.514 239.99 167.34 240.32 167.34 240.728C167.34 241.052 167.442 241.322 167.646 241.538C167.862 241.742 168.126 241.91 168.438 242.042C168.762 242.162 169.206 242.3 169.77 242.456C170.478 242.648 171.054 242.84 171.498 243.032C171.942 243.212 172.32 243.488 172.632 243.86C172.956 244.232 173.124 244.718 173.136 245.318C173.136 245.858 172.986 246.344 172.686 246.776C172.386 247.208 171.96 247.55 171.408 247.802C170.868 248.042 170.244 248.162 169.536 248.162Z" fill="white"/>
<path d="M54 230.75C47.7964 230.75 42.75 235.796 42.75 242C42.75 248.204 47.7964 253.25 54 253.25C60.2036 253.25 65.25 248.204 65.25 242C65.25 235.796 60.2036 230.75 54 230.75ZM54 231.277C59.918 231.277 64.7227 236.082 64.7227 242C64.7227 247.918 59.918 252.723 54 252.723C48.082 252.723 43.2773 247.918 43.2773 242C43.2773 236.082 48.082 231.277 54 231.277ZM54 232.361C50.6272 232.361 47.6682 234.075 45.9434 236.697C46.1704 236.705 46.3755 236.697 46.5586 236.697C47.5693 236.697 49.1367 236.58 49.1367 236.58C49.6567 236.551 49.7153 237.309 49.1953 237.371C49.1953 237.371 48.6643 237.459 48.082 237.488L51.5977 247.918L53.707 241.59L52.2129 237.488C51.6929 237.459 51.1875 237.371 51.1875 237.371C50.6675 237.342 50.7261 236.551 51.2461 236.58C51.2461 236.58 52.8464 236.697 53.7949 236.697C54.8057 236.697 56.373 236.58 56.373 236.58C56.8931 236.551 56.9517 237.309 56.4316 237.371C56.4316 237.371 55.897 237.459 55.3184 237.488L58.8047 247.859L59.7715 244.637C60.2585 243.384 60.5039 242.33 60.5039 241.502C60.5039 240.308 60.0828 239.506 59.7129 238.865C59.2258 238.071 58.7754 237.375 58.7754 236.58C58.7754 235.694 59.4382 234.881 60.3867 234.881C60.4307 234.881 60.46 234.881 60.5039 234.881C58.7864 233.306 56.5122 232.361 54 232.361ZM62.4668 237.371C62.5107 237.679 62.5254 238.012 62.5254 238.367C62.5254 239.345 62.3423 240.447 61.793 241.824L58.8633 250.35C61.7344 248.676 63.6387 245.56 63.6387 242C63.6387 240.323 63.2212 238.744 62.4668 237.371ZM45.1816 238.074C44.647 239.272 44.3613 240.601 44.3613 242C44.3613 245.82 46.5623 249.108 49.7812 250.672L45.1816 238.074ZM54.1758 242.85L51.2754 251.258C52.1397 251.51 53.0515 251.639 54 251.639C55.1243 251.639 56.1899 251.463 57.1934 251.111C57.1677 251.071 57.1531 251.012 57.1348 250.965L54.1758 242.85Z" fill="#9D8D40"/>
</g>
<g filter="url(#filter5_d_142_78)">
<rect x="322" y="47" width="160" height="50" rx="10" fill="#353535"/>
<path d="M383.754 65.454L379.02 78H377.13L372.396 65.454H374.142L378.084 76.272L382.026 65.454H383.754ZM389.528 78.126C388.7 78.126 387.956 77.982 387.296 77.694C386.648 77.394 386.138 76.986 385.766 76.47C385.394 75.942 385.202 75.336 385.19 74.652H386.936C386.996 75.24 387.236 75.738 387.656 76.146C388.088 76.542 388.712 76.74 389.528 76.74C390.308 76.74 390.92 76.548 391.364 76.164C391.82 75.768 392.048 75.264 392.048 74.652C392.048 74.172 391.916 73.782 391.652 73.482C391.388 73.182 391.058 72.954 390.662 72.798C390.266 72.642 389.732 72.474 389.06 72.294C388.232 72.078 387.566 71.862 387.062 71.646C386.57 71.43 386.144 71.094 385.784 70.638C385.436 70.17 385.262 69.546 385.262 68.766C385.262 68.082 385.436 67.476 385.784 66.948C386.132 66.42 386.618 66.012 387.242 65.724C387.878 65.436 388.604 65.292 389.42 65.292C390.596 65.292 391.556 65.586 392.3 66.174C393.056 66.762 393.482 67.542 393.578 68.514H391.778C391.718 68.034 391.466 67.614 391.022 67.254C390.578 66.882 389.99 66.696 389.258 66.696C388.574 66.696 388.016 66.876 387.584 67.236C387.152 67.584 386.936 68.076 386.936 68.712C386.936 69.168 387.062 69.54 387.314 69.828C387.578 70.116 387.896 70.338 388.268 70.494C388.652 70.638 389.186 70.806 389.87 70.998C390.698 71.226 391.364 71.454 391.868 71.682C392.372 71.898 392.804 72.24 393.164 72.708C393.524 73.164 393.704 73.788 393.704 74.58C393.704 75.192 393.542 75.768 393.218 76.308C392.894 76.848 392.414 77.286 391.778 77.622C391.142 77.958 390.392 78.126 389.528 78.126ZM400.301 71.718C400.301 70.494 400.577 69.396 401.129 68.424C401.681 67.44 402.431 66.672 403.379 66.12C404.339 65.568 405.401 65.292 406.565 65.292C407.933 65.292 409.127 65.622 410.147 66.282C411.167 66.942 411.911 67.878 412.379 69.09H410.417C410.069 68.334 409.565 67.752 408.905 67.344C408.257 66.936 407.477 66.732 406.565 66.732C405.689 66.732 404.903 66.936 404.207 67.344C403.511 67.752 402.965 68.334 402.569 69.09C402.173 69.834 401.975 70.71 401.975 71.718C401.975 72.714 402.173 73.59 402.569 74.346C402.965 75.09 403.511 75.666 404.207 76.074C404.903 76.482 405.689 76.686 406.565 76.686C407.477 76.686 408.257 76.488 408.905 76.092C409.565 75.684 410.069 75.102 410.417 74.346H412.379C411.911 75.546 411.167 76.476 410.147 77.136C409.127 77.784 407.933 78.108 406.565 78.108C405.401 78.108 404.339 77.838 403.379 77.298C402.431 76.746 401.681 75.984 401.129 75.012C400.577 74.04 400.301 72.942 400.301 71.718ZM419.12 78.162C418.196 78.162 417.356 77.952 416.6 77.532C415.856 77.112 415.268 76.518 414.836 75.75C414.416 74.97 414.206 74.07 414.206 73.05C414.206 72.042 414.422 71.154 414.854 70.386C415.298 69.606 415.898 69.012 416.654 68.604C417.41 68.184 418.256 67.974 419.192 67.974C420.128 67.974 420.974 68.184 421.73 68.604C422.486 69.012 423.08 69.6 423.512 70.368C423.956 71.136 424.178 72.03 424.178 73.05C424.178 74.07 423.95 74.97 423.494 75.75C423.05 76.518 422.444 77.112 421.676 77.532C420.908 77.952 420.056 78.162 419.12 78.162ZM419.12 76.722C419.708 76.722 420.26 76.584 420.776 76.308C421.292 76.032 421.706 75.618 422.018 75.066C422.342 74.514 422.504 73.842 422.504 73.05C422.504 72.258 422.348 71.586 422.036 71.034C421.724 70.482 421.316 70.074 420.812 69.81C420.308 69.534 419.762 69.396 419.174 69.396C418.574 69.396 418.022 69.534 417.518 69.81C417.026 70.074 416.63 70.482 416.33 71.034C416.03 71.586 415.88 72.258 415.88 73.05C415.88 73.854 416.024 74.532 416.312 75.084C416.612 75.636 417.008 76.05 417.5 76.326C417.992 76.59 418.532 76.722 419.12 76.722ZM425.719 73.032C425.719 72.024 425.923 71.142 426.331 70.386C426.739 69.618 427.297 69.024 428.005 68.604C428.725 68.184 429.529 67.974 430.417 67.974C431.185 67.974 431.899 68.154 432.559 68.514C433.219 68.862 433.723 69.324 434.071 69.9V64.68H435.727V78H434.071V76.146C433.747 76.734 433.267 77.22 432.631 77.604C431.995 77.976 431.251 78.162 430.399 78.162C429.523 78.162 428.725 77.946 428.005 77.514C427.297 77.082 426.739 76.476 426.331 75.696C425.923 74.916 425.719 74.028 425.719 73.032ZM434.071 73.05C434.071 72.306 433.921 71.658 433.621 71.106C433.321 70.554 432.913 70.134 432.397 69.846C431.893 69.546 431.335 69.396 430.723 69.396C430.111 69.396 429.553 69.54 429.049 69.828C428.545 70.116 428.143 70.536 427.843 71.088C427.543 71.64 427.393 72.288 427.393 73.032C427.393 73.788 427.543 74.448 427.843 75.012C428.143 75.564 428.545 75.99 429.049 76.29C429.553 76.578 430.111 76.722 430.723 76.722C431.335 76.722 431.893 76.578 432.397 76.29C432.913 75.99 433.321 75.564 433.621 75.012C433.921 74.448 434.071 73.794 434.071 73.05ZM447.495 72.69C447.495 73.002 447.477 73.332 447.441 73.68H439.557C439.617 74.652 439.947 75.414 440.547 75.966C441.159 76.506 441.897 76.776 442.761 76.776C443.469 76.776 444.057 76.614 444.525 76.29C445.005 75.954 445.341 75.51 445.533 74.958H447.297C447.033 75.906 446.505 76.68 445.713 77.28C444.921 77.868 443.937 78.162 442.761 78.162C441.825 78.162 440.985 77.952 440.241 77.532C439.509 77.112 438.933 76.518 438.513 75.75C438.093 74.97 437.883 74.07 437.883 73.05C437.883 72.03 438.087 71.136 438.495 70.368C438.903 69.6 439.473 69.012 440.205 68.604C440.949 68.184 441.801 67.974 442.761 67.974C443.697 67.974 444.525 68.178 445.245 68.586C445.965 68.994 446.517 69.558 446.901 70.278C447.297 70.986 447.495 71.79 447.495 72.69ZM445.803 72.348C445.803 71.724 445.665 71.19 445.389 70.746C445.113 70.29 444.735 69.948 444.255 69.72C443.787 69.48 443.265 69.36 442.689 69.36C441.861 69.36 441.153 69.624 440.565 70.152C439.989 70.68 439.659 71.412 439.575 72.348H445.803Z" fill="white"/>
<path d="M359.5 63.9437V80.0562C359.5 80.85 359.006 81.5562 358.262 81.8187L352.75 84.4062L353.25 77.625V66.375L352.75 59.5938L358.262 62.1812C359.006 62.4437 359.5 63.15 359.5 63.9437Z" fill="#BCB156"/>
<path d="M337.625 78.185L353.25 66.375V60.3456C353.25 59.5968 352.324 59.2468 351.828 59.8081L334.911 75.2743C334.349 75.7931 334.381 76.6912 334.978 77.1693C334.978 77.1693 335.806 77.9393 336.105 78.1531C336.565 78.4812 337.169 78.5187 337.625 78.185Z" fill="#7A5C1D"/>
<path d="M337.625 65.815L353.25 77.625V83.6543C353.25 84.4031 352.324 84.7531 351.828 84.1918L334.911 68.7256C334.349 68.2069 334.381 67.3087 334.978 66.8306C334.978 66.8306 335.806 66.0606 336.105 65.8469C336.565 65.5187 337.169 65.4812 337.625 65.815Z" fill="#947E31"/>
</g>
<g filter="url(#filter6_d_142_78)">
<rect x="322" y="302" width="160" height="50" rx="10" fill="#353535"/>
<path d="M379.704 320.454V329.724C379.704 330.756 379.386 331.584 378.75 332.208C378.114 332.82 377.274 333.126 376.23 333.126C375.174 333.126 374.328 332.814 373.692 332.19C373.056 331.554 372.738 330.69 372.738 329.598H374.376C374.388 330.21 374.544 330.708 374.844 331.092C375.156 331.476 375.618 331.668 376.23 331.668C376.842 331.668 377.298 331.488 377.598 331.128C377.898 330.756 378.048 330.288 378.048 329.724V320.454H379.704ZM382.319 328.032C382.319 327.024 382.523 326.142 382.931 325.386C383.339 324.618 383.897 324.024 384.605 323.604C385.325 323.184 386.123 322.974 386.999 322.974C387.863 322.974 388.613 323.16 389.249 323.532C389.885 323.904 390.359 324.372 390.671 324.936V323.136H392.327V333H390.671V331.164C390.347 331.74 389.861 332.22 389.213 332.604C388.577 332.976 387.833 333.162 386.981 333.162C386.105 333.162 385.313 332.946 384.605 332.514C383.897 332.082 383.339 331.476 382.931 330.696C382.523 329.916 382.319 329.028 382.319 328.032ZM390.671 328.05C390.671 327.306 390.521 326.658 390.221 326.106C389.921 325.554 389.513 325.134 388.997 324.846C388.493 324.546 387.935 324.396 387.323 324.396C386.711 324.396 386.153 324.54 385.649 324.828C385.145 325.116 384.743 325.536 384.443 326.088C384.143 326.64 383.993 327.288 383.993 328.032C383.993 328.788 384.143 329.448 384.443 330.012C384.743 330.564 385.145 330.99 385.649 331.29C386.153 331.578 386.711 331.722 387.323 331.722C387.935 331.722 388.493 331.578 388.997 331.29C389.513 330.99 389.921 330.564 390.221 330.012C390.521 329.448 390.671 328.794 390.671 328.05ZM398.767 331.488L401.827 323.136H403.573L399.703 333H397.795L393.925 323.136H395.689L398.767 331.488ZM404.573 328.032C404.573 327.024 404.777 326.142 405.185 325.386C405.593 324.618 406.151 324.024 406.859 323.604C407.579 323.184 408.377 322.974 409.253 322.974C410.117 322.974 410.867 323.16 411.503 323.532C412.139 323.904 412.613 324.372 412.925 324.936V323.136H414.581V333H412.925V331.164C412.601 331.74 412.115 332.22 411.467 332.604C410.831 332.976 410.087 333.162 409.235 333.162C408.359 333.162 407.567 332.946 406.859 332.514C406.151 332.082 405.593 331.476 405.185 330.696C404.777 329.916 404.573 329.028 404.573 328.032ZM412.925 328.05C412.925 327.306 412.775 326.658 412.475 326.106C412.175 325.554 411.767 325.134 411.251 324.846C410.747 324.546 410.189 324.396 409.577 324.396C408.965 324.396 408.407 324.54 407.903 324.828C407.399 325.116 406.997 325.536 406.697 326.088C406.397 326.64 406.247 327.288 406.247 328.032C406.247 328.788 406.397 329.448 406.697 330.012C406.997 330.564 407.399 330.99 407.903 331.29C408.407 331.578 408.965 331.722 409.577 331.722C410.189 331.722 410.747 331.578 411.251 331.29C411.767 330.99 412.175 330.564 412.475 330.012C412.775 329.448 412.925 328.794 412.925 328.05ZM421.327 333.126C420.499 333.126 419.755 332.982 419.095 332.694C418.447 332.394 417.937 331.986 417.565 331.47C417.193 330.942 417.001 330.336 416.989 329.652H418.735C418.795 330.24 419.035 330.738 419.455 331.146C419.887 331.542 420.511 331.74 421.327 331.74C422.107 331.74 422.719 331.548 423.163 331.164C423.619 330.768 423.847 330.264 423.847 329.652C423.847 329.172 423.715 328.782 423.451 328.482C423.187 328.182 422.857 327.954 422.461 327.798C422.065 327.642 421.531 327.474 420.859 327.294C420.031 327.078 419.365 326.862 418.861 326.646C418.369 326.43 417.943 326.094 417.583 325.638C417.235 325.17 417.061 324.546 417.061 323.766C417.061 323.082 417.235 322.476 417.583 321.948C417.931 321.42 418.417 321.012 419.041 320.724C419.677 320.436 420.403 320.292 421.219 320.292C422.395 320.292 423.355 320.586 424.099 321.174C424.855 321.762 425.281 322.542 425.377 323.514H423.577C423.517 323.034 423.265 322.614 422.821 322.254C422.377 321.882 421.789 321.696 421.057 321.696C420.373 321.696 419.815 321.876 419.383 322.236C418.951 322.584 418.735 323.076 418.735 323.712C418.735 324.168 418.861 324.54 419.113 324.828C419.377 325.116 419.695 325.338 420.067 325.494C420.451 325.638 420.985 325.806 421.669 325.998C422.497 326.226 423.163 326.454 423.667 326.682C424.171 326.898 424.603 327.24 424.963 327.708C425.323 328.164 425.503 328.788 425.503 329.58C425.503 330.192 425.341 330.768 425.017 331.308C424.693 331.848 424.213 332.286 423.577 332.622C422.941 332.958 422.191 333.126 421.327 333.126ZM427.301 328.05C427.301 327.03 427.505 326.142 427.913 325.386C428.321 324.618 428.885 324.024 429.605 323.604C430.337 323.184 431.171 322.974 432.107 322.974C433.319 322.974 434.315 323.268 435.095 323.856C435.887 324.444 436.409 325.26 436.661 326.304H434.897C434.729 325.704 434.399 325.23 433.907 324.882C433.427 324.534 432.827 324.36 432.107 324.36C431.171 324.36 430.415 324.684 429.839 325.332C429.263 325.968 428.975 326.874 428.975 328.05C428.975 329.238 429.263 330.156 429.839 330.804C430.415 331.452 431.171 331.776 432.107 331.776C432.827 331.776 433.427 331.608 433.907 331.272C434.387 330.936 434.717 330.456 434.897 329.832H436.661C436.397 330.84 435.869 331.65 435.077 332.262C434.285 332.862 433.295 333.162 432.107 333.162C431.171 333.162 430.337 332.952 429.605 332.532C428.885 332.112 428.321 331.518 427.913 330.75C427.505 329.982 427.301 329.082 427.301 328.05ZM440.485 324.738C440.773 324.174 441.181 323.736 441.709 323.424C442.249 323.112 442.903 322.956 443.671 322.956V324.648H443.239C441.403 324.648 440.485 325.644 440.485 327.636V333H438.847V323.136H440.485V324.738ZM446.408 321.534C446.096 321.534 445.832 321.426 445.616 321.21C445.4 320.994 445.292 320.73 445.292 320.418C445.292 320.106 445.4 319.842 445.616 319.626C445.832 319.41 446.096 319.302 446.408 319.302C446.708 319.302 446.96 319.41 447.164 319.626C447.38 319.842 447.488 320.106 447.488 320.418C447.488 320.73 447.38 320.994 447.164 321.21C446.96 321.426 446.708 321.534 446.408 321.534ZM447.2 323.136V333H445.562V323.136H447.2ZM451.629 324.954C451.953 324.39 452.433 323.922 453.069 323.55C453.717 323.166 454.467 322.974 455.319 322.974C456.195 322.974 456.987 323.184 457.695 323.604C458.415 324.024 458.979 324.618 459.387 325.386C459.795 326.142 459.999 327.024 459.999 328.032C459.999 329.028 459.795 329.916 459.387 330.696C458.979 331.476 458.415 332.082 457.695 332.514C456.987 332.946 456.195 333.162 455.319 333.162C454.479 333.162 453.735 332.976 453.087 332.604C452.451 332.22 451.965 331.746 451.629 331.182V337.68H449.991V323.136H451.629V324.954ZM458.325 328.032C458.325 327.288 458.175 326.64 457.875 326.088C457.575 325.536 457.167 325.116 456.651 324.828C456.147 324.54 455.589 324.396 454.977 324.396C454.377 324.396 453.819 324.546 453.303 324.846C452.799 325.134 452.391 325.56 452.079 326.124C451.779 326.676 451.629 327.318 451.629 328.05C451.629 328.794 451.779 329.448 452.079 330.012C452.391 330.564 452.799 330.99 453.303 331.29C453.819 331.578 454.377 331.722 454.977 331.722C455.589 331.722 456.147 331.578 456.651 331.29C457.167 330.99 457.575 330.564 457.875 330.012C458.175 329.448 458.325 328.788 458.325 328.032ZM464.154 324.486V330.3C464.154 330.78 464.256 331.122 464.46 331.326C464.664 331.518 465.018 331.614 465.522 331.614H466.728V333H465.252C464.34 333 463.656 332.79 463.2 332.37C462.744 331.95 462.516 331.26 462.516 330.3V324.486H461.238V323.136H462.516V320.652H464.154V323.136H466.728V324.486H464.154Z" fill="white"/>
<path d="M335.75 338.25V315.75H358.25V338.25H335.75Z" fill="#8F7A32"/>
<path d="M350.461 332.592C350.894 333.294 351.364 333.967 352.359 333.967C353.196 333.967 353.634 333.552 353.634 332.977C353.634 332.289 353.181 332.044 352.261 331.644L351.756 331.429C350.301 330.811 349.332 330.037 349.332 328.403C349.332 326.897 350.486 325.751 352.287 325.751C353.571 325.751 354.492 326.195 355.157 327.359L353.586 328.363C353.241 327.746 352.867 327.502 352.287 327.502C351.696 327.502 351.322 327.876 351.322 328.363C351.322 328.966 351.697 329.209 352.562 329.582L353.067 329.797C354.782 330.528 355.75 331.274 355.75 332.952C355.75 334.759 354.322 335.75 352.406 335.75C350.532 335.75 349.467 334.809 348.875 333.645L350.461 332.592ZM343.22 332.643C343.536 333.209 344.017 333.645 344.708 333.645C345.369 333.645 345.75 333.384 345.75 332.368V325.75H347.833V332.688C347.833 334.792 346.613 335.75 344.83 335.75C343.219 335.75 342.057 334.659 341.583 333.645L343.22 332.643Z" fill="#000001"/>
</g>
<g filter="url(#filter7_d_142_78)">
<rect x="322" y="132" width="160" height="50" rx="10" fill="#353535"/>
<path d="M379.668 156.538C380.124 156.61 380.538 156.796 380.91 157.096C381.294 157.396 381.594 157.768 381.81 158.212C382.038 158.656 382.152 159.13 382.152 159.634C382.152 160.27 381.99 160.846 381.666 161.362C381.342 161.866 380.868 162.268 380.244 162.568C379.632 162.856 378.906 163 378.066 163H373.386V150.454H377.886C378.738 150.454 379.464 150.598 380.064 150.886C380.664 151.162 381.114 151.54 381.414 152.02C381.714 152.5 381.864 153.04 381.864 153.64C381.864 154.384 381.66 155.002 381.252 155.494C380.856 155.974 380.328 156.322 379.668 156.538ZM375.024 155.872H377.778C378.546 155.872 379.14 155.692 379.56 155.332C379.98 154.972 380.19 154.474 380.19 153.838C380.19 153.202 379.98 152.704 379.56 152.344C379.14 151.984 378.534 151.804 377.742 151.804H375.024V155.872ZM377.922 161.65C378.738 161.65 379.374 161.458 379.83 161.074C380.286 160.69 380.514 160.156 380.514 159.472C380.514 158.776 380.274 158.23 379.794 157.834C379.314 157.426 378.672 157.222 377.868 157.222H375.024V161.65H377.922ZM388.727 163.162C387.803 163.162 386.963 162.952 386.207 162.532C385.463 162.112 384.875 161.518 384.443 160.75C384.023 159.97 383.813 159.07 383.813 158.05C383.813 157.042 384.029 156.154 384.461 155.386C384.905 154.606 385.505 154.012 386.261 153.604C387.017 153.184 387.863 152.974 388.799 152.974C389.735 152.974 390.581 153.184 391.337 153.604C392.093 154.012 392.687 154.6 393.119 155.368C393.563 156.136 393.785 157.03 393.785 158.05C393.785 159.07 393.557 159.97 393.101 160.75C392.657 161.518 392.051 162.112 391.283 162.532C390.515 162.952 389.663 163.162 388.727 163.162ZM388.727 161.722C389.315 161.722 389.867 161.584 390.383 161.308C390.899 161.032 391.313 160.618 391.625 160.066C391.949 159.514 392.111 158.842 392.111 158.05C392.111 157.258 391.955 156.586 391.643 156.034C391.331 155.482 390.923 155.074 390.419 154.81C389.915 154.534 389.369 154.396 388.781 154.396C388.181 154.396 387.629 154.534 387.125 154.81C386.633 155.074 386.237 155.482 385.937 156.034C385.637 156.586 385.487 157.258 385.487 158.05C385.487 158.854 385.631 159.532 385.919 160.084C386.219 160.636 386.615 161.05 387.107 161.326C387.599 161.59 388.139 161.722 388.727 161.722ZM400.241 163.162C399.317 163.162 398.477 162.952 397.721 162.532C396.977 162.112 396.389 161.518 395.957 160.75C395.537 159.97 395.327 159.07 395.327 158.05C395.327 157.042 395.543 156.154 395.975 155.386C396.419 154.606 397.019 154.012 397.775 153.604C398.531 153.184 399.377 152.974 400.313 152.974C401.249 152.974 402.095 153.184 402.851 153.604C403.607 154.012 404.201 154.6 404.633 155.368C405.077 156.136 405.299 157.03 405.299 158.05C405.299 159.07 405.071 159.97 404.615 160.75C404.171 161.518 403.565 162.112 402.797 162.532C402.029 162.952 401.177 163.162 400.241 163.162ZM400.241 161.722C400.829 161.722 401.381 161.584 401.897 161.308C402.413 161.032 402.827 160.618 403.139 160.066C403.463 159.514 403.625 158.842 403.625 158.05C403.625 157.258 403.469 156.586 403.157 156.034C402.845 155.482 402.437 155.074 401.933 154.81C401.429 154.534 400.883 154.396 400.295 154.396C399.695 154.396 399.143 154.534 398.639 154.81C398.147 155.074 397.751 155.482 397.451 156.034C397.151 156.586 397.001 157.258 397.001 158.05C397.001 158.854 397.145 159.532 397.433 160.084C397.733 160.636 398.129 161.05 398.621 161.326C399.113 161.59 399.653 161.722 400.241 161.722ZM409.45 154.486V160.3C409.45 160.78 409.552 161.122 409.756 161.326C409.96 161.518 410.314 161.614 410.818 161.614H412.024V163H410.548C409.636 163 408.952 162.79 408.496 162.37C408.04 161.95 407.812 161.26 407.812 160.3V154.486H406.534V153.136H407.812V150.652H409.45V153.136H412.024V154.486H409.45ZM417.501 163.162C416.745 163.162 416.067 163.036 415.467 162.784C414.867 162.52 414.393 162.16 414.045 161.704C413.697 161.236 413.505 160.702 413.469 160.102H415.161C415.209 160.594 415.437 160.996 415.845 161.308C416.265 161.62 416.811 161.776 417.483 161.776C418.107 161.776 418.599 161.638 418.959 161.362C419.319 161.086 419.499 160.738 419.499 160.318C419.499 159.886 419.307 159.568 418.923 159.364C418.539 159.148 417.945 158.938 417.141 158.734C416.409 158.542 415.809 158.35 415.341 158.158C414.885 157.954 414.489 157.66 414.153 157.276C413.829 156.88 413.667 156.364 413.667 155.728C413.667 155.224 413.817 154.762 414.117 154.342C414.417 153.922 414.843 153.592 415.395 153.352C415.947 153.1 416.577 152.974 417.285 152.974C418.377 152.974 419.259 153.25 419.931 153.802C420.603 154.354 420.963 155.11 421.011 156.07H419.373C419.337 155.554 419.127 155.14 418.743 154.828C418.371 154.516 417.867 154.36 417.231 154.36C416.643 154.36 416.175 154.486 415.827 154.738C415.479 154.99 415.305 155.32 415.305 155.728C415.305 156.052 415.407 156.322 415.611 156.538C415.827 156.742 416.091 156.91 416.403 157.042C416.727 157.162 417.171 157.3 417.735 157.456C418.443 157.648 419.019 157.84 419.463 158.032C419.907 158.212 420.285 158.488 420.597 158.86C420.921 159.232 421.089 159.718 421.101 160.318C421.101 160.858 420.951 161.344 420.651 161.776C420.351 162.208 419.925 162.55 419.373 162.802C418.833 163.042 418.209 163.162 417.501 163.162ZM425.411 154.486V160.3C425.411 160.78 425.513 161.122 425.717 161.326C425.921 161.518 426.275 161.614 426.779 161.614H427.985V163H426.509C425.597 163 424.913 162.79 424.457 162.37C424.001 161.95 423.773 161.26 423.773 160.3V154.486H422.495V153.136H423.773V150.652H425.411V153.136H427.985V154.486H425.411ZM431.608 154.738C431.896 154.174 432.304 153.736 432.832 153.424C433.372 153.112 434.026 152.956 434.794 152.956V154.648H434.362C432.526 154.648 431.608 155.644 431.608 157.636V163H429.97V153.136H431.608V154.738ZM436.073 158.032C436.073 157.024 436.277 156.142 436.685 155.386C437.093 154.618 437.651 154.024 438.359 153.604C439.079 153.184 439.877 152.974 440.753 152.974C441.617 152.974 442.367 153.16 443.003 153.532C443.639 153.904 444.113 154.372 444.425 154.936V153.136H446.081V163H444.425V161.164C444.101 161.74 443.615 162.22 442.967 162.604C442.331 162.976 441.587 163.162 440.735 163.162C439.859 163.162 439.067 162.946 438.359 162.514C437.651 162.082 437.093 161.476 436.685 160.696C436.277 159.916 436.073 159.028 436.073 158.032ZM444.425 158.05C444.425 157.306 444.275 156.658 443.975 156.106C443.675 155.554 443.267 155.134 442.751 154.846C442.247 154.546 441.689 154.396 441.077 154.396C440.465 154.396 439.907 154.54 439.403 154.828C438.899 155.116 438.497 155.536 438.197 156.088C437.897 156.64 437.747 157.288 437.747 158.032C437.747 158.788 437.897 159.448 438.197 160.012C438.497 160.564 438.899 160.99 439.403 161.29C439.907 161.578 440.465 161.722 441.077 161.722C441.689 161.722 442.247 161.578 442.751 161.29C443.267 160.99 443.675 160.564 443.975 160.012C444.275 159.448 444.425 158.794 444.425 158.05ZM450.487 154.954C450.811 154.39 451.291 153.922 451.927 153.55C452.575 153.166 453.325 152.974 454.177 152.974C455.053 152.974 455.845 153.184 456.553 153.604C457.273 154.024 457.837 154.618 458.245 155.386C458.653 156.142 458.857 157.024 458.857 158.032C458.857 159.028 458.653 159.916 458.245 160.696C457.837 161.476 457.273 162.082 456.553 162.514C455.845 162.946 455.053 163.162 454.177 163.162C453.337 163.162 452.593 162.976 451.945 162.604C451.309 162.22 450.823 161.746 450.487 161.182V167.68H448.849V153.136H450.487V154.954ZM457.183 158.032C457.183 157.288 457.033 156.64 456.733 156.088C456.433 155.536 456.025 155.116 455.509 154.828C455.005 154.54 454.447 154.396 453.835 154.396C453.235 154.396 452.677 154.546 452.161 154.846C451.657 155.134 451.249 155.56 450.937 156.124C450.637 156.676 450.487 157.318 450.487 158.05C450.487 158.794 450.637 159.448 450.937 160.012C451.249 160.564 451.657 160.99 452.161 161.29C452.677 161.578 453.235 161.722 453.835 161.722C454.447 161.722 455.005 161.578 455.509 161.29C456.025 160.99 456.433 160.564 456.733 160.012C457.033 159.448 457.183 158.788 457.183 158.032ZM465.146 160.102V158.86L471.464 150.112H473.426V158.68H475.226V160.102H473.426V163H471.806V160.102H465.146ZM471.878 151.822L467.036 158.68H471.878V151.822Z" fill="white"/>
<path d="M358.25 165.125C358.25 166.851 356.851 168.25 355.125 168.25H338.875C337.149 168.25 335.75 166.851 335.75 165.125V148.875C335.75 147.149 337.149 145.75 338.875 145.75H355.125C356.851 145.75 358.25 147.149 358.25 148.875V165.125Z" fill="#9D8D40"/>
<path d="M352.644 158C352.237 157.437 351.65 157.05 350.894 156.844C350.894 156.844 351.531 156.612 352.106 155.75C352.45 155.2 352.625 154.537 352.625 153.762C352.625 152.419 352.137 151.387 351.162 150.681C350.187 149.975 349.087 149.5 347.219 149.5H341.375V164.5H347.894C349.662 164.487 350.994 164.106 351.9 163.375C352.8 162.631 353.25 161.531 353.25 160.062C353.25 159.25 353.05 158.562 352.644 158ZM345.125 152C345.125 152 347.731 152 347.781 152C348.731 152 349.5 152.769 349.5 153.719C349.5 154.669 348.731 155.437 347.781 155.437C347.731 155.437 345.125 155.437 345.125 155.437V152ZM348.25 162H345.125V158.25H348.25C349.287 158.25 350.125 159.087 350.125 160.125C350.125 161.162 349.287 162 348.25 162Z" fill="white"/>
</g>
<g filter="url(#filter8_d_142_78)">
<rect x="322" y="217" width="160" height="50" rx="10" fill="#353535"/>
<path d="M381.25 249H379.612L373.024 239.01V249H371.386V236.436H373.024L379.612 246.408V236.436H381.25V249ZM385.68 240.954C386.004 240.39 386.484 239.922 387.12 239.55C387.768 239.166 388.518 238.974 389.37 238.974C390.246 238.974 391.038 239.184 391.746 239.604C392.466 240.024 393.03 240.618 393.438 241.386C393.846 242.142 394.05 243.024 394.05 244.032C394.05 245.028 393.846 245.916 393.438 246.696C393.03 247.476 392.466 248.082 391.746 248.514C391.038 248.946 390.246 249.162 389.37 249.162C388.53 249.162 387.786 248.976 387.138 248.604C386.502 248.22 386.016 247.746 385.68 247.182V253.68H384.042V239.136H385.68V240.954ZM392.376 244.032C392.376 243.288 392.226 242.64 391.926 242.088C391.626 241.536 391.218 241.116 390.702 240.828C390.198 240.54 389.64 240.396 389.028 240.396C388.428 240.396 387.87 240.546 387.354 240.846C386.85 241.134 386.442 241.56 386.13 242.124C385.83 242.676 385.68 243.318 385.68 244.05C385.68 244.794 385.83 245.448 386.13 246.012C386.442 246.564 386.85 246.99 387.354 247.29C387.87 247.578 388.428 247.722 389.028 247.722C389.64 247.722 390.198 247.578 390.702 247.29C391.218 246.99 391.626 246.564 391.926 246.012C392.226 245.448 392.376 244.788 392.376 244.032ZM408.068 238.956C408.836 238.956 409.52 239.118 410.12 239.442C410.72 239.754 411.194 240.228 411.542 240.864C411.89 241.5 412.064 242.274 412.064 243.186V249H410.444V243.42C410.444 242.436 410.198 241.686 409.706 241.17C409.226 240.642 408.572 240.378 407.744 240.378C406.892 240.378 406.214 240.654 405.71 241.206C405.206 241.746 404.954 242.532 404.954 243.564V249H403.334V243.42C403.334 242.436 403.088 241.686 402.596 241.17C402.116 240.642 401.462 240.378 400.634 240.378C399.782 240.378 399.104 240.654 398.6 241.206C398.096 241.746 397.844 242.532 397.844 243.564V249H396.206V239.136H397.844V240.558C398.168 240.042 398.6 239.646 399.14 239.37C399.692 239.094 400.298 238.956 400.958 238.956C401.786 238.956 402.518 239.142 403.154 239.514C403.79 239.886 404.264 240.432 404.576 241.152C404.852 240.456 405.308 239.916 405.944 239.532C406.58 239.148 407.288 238.956 408.068 238.956Z" fill="white"/>
<path d="M330 236.375H360V247H345V248.875H338.125V247H330V236.375Z" fill="#8F7A32"/>
<path d="M331.875 245.125H335V240.125H336.875V245.125H338.125V238.25H331.875V245.125ZM340 238.25V247H343.125V245.125H346.25V238.25H340ZM345 243.25H343.125V240.125H345V243.25ZM348.125 238.25V245.125H351.25V240.125H353.125V245.125H355V240.125H356.875V245.125H358.125V238.25H348.125Z" fill="white"/>
</g>
<defs>
<filter id="filter0_d_142_78" x="0" y="0" width="520" height="411" filterUnits="userSpaceOnUse" color-interpolation-filters="sRGB">
<feFlood flood-opacity="0" result="BackgroundImageFix"/>
<feColorMatrix in="SourceAlpha" type="matrix" values="0 0 0 0 0 0 0 0 0 0 0 0 0 0 0 0 0 0 127 0" result="hardAlpha"/>
<feOffset dx="4" dy="4"/>
<feGaussianBlur stdDeviation="2"/>
<feComposite in2="hardAlpha" operator="out"/>
<feColorMatrix type="matrix" values="0 0 0 0 0.170833 0 0 0 0 0.170833 0 0 0 0 0.170833 0 0 0 0.4 0"/>
<feBlend mode="normal" in2="BackgroundImageFix" result="effect1_dropShadow_142_78"/>
<feBlend mode="normal" in="SourceGraphic" in2="effect1_dropShadow_142_78" result="shape"/>
</filter>
<filter id="filter1_d_142_78" x="28.5" y="44.5" width="166" height="56" filterUnits="userSpaceOnUse" color-interpolation-filters="sRGB">
<feFlood flood-opacity="0" result="BackgroundImageFix"/>
<feColorMatrix in="SourceAlpha" type="matrix" values="0 0 0 0 0 0 0 0 0 0 0 0 0 0 0 0 0 0 127 0" result="hardAlpha"/>
<feOffset dx="1.5" dy="0.5"/>
<feGaussianBlur stdDeviation="1.5"/>
<feComposite in2="hardAlpha" operator="out"/>
<feColorMatrix type="matrix" values="0 0 0 0 0.379167 0 0 0 0 0.362417 0 0 0 0 0.325451 0 0 0 1 0"/>
<feBlend mode="normal" in2="BackgroundImageFix" result="effect1_dropShadow_142_78"/>
<feBlend mode="normal" in="SourceGraphic" in2="effect1_dropShadow_142_78" result="shape"/>
</filter>
<filter id="filter2_d_142_78" x="28.5" y="299.5" width="166" height="56" filterUnits="userSpaceOnUse" color-interpolation-filters="sRGB">
<feFlood flood-opacity="0" result="BackgroundImageFix"/>
<feColorMatrix in="SourceAlpha" type="matrix" values="0 0 0 0 0 0 0 0 0 0 0 0 0 0 0 0 0 0 127 0" result="hardAlpha"/>
<feOffset dx="1.5" dy="0.5"/>
<feGaussianBlur stdDeviation="1.5"/>
<feComposite in2="hardAlpha" operator="out"/>
<feColorMatrix type="matrix" values="0 0 0 0 0.379167 0 0 0 0 0.362417 0 0 0 0 0.325451 0 0 0 1 0"/>
<feBlend mode="normal" in2="BackgroundImageFix" result="effect1_dropShadow_142_78"/>
<feBlend mode="normal" in="SourceGraphic" in2="effect1_dropShadow_142_78" result="shape"/>
</filter>
<filter id="filter3_d_142_78" x="27.5" y="129.5" width="168" height="56" filterUnits="userSpaceOnUse" color-interpolation-filters="sRGB">
<feFlood flood-opacity="0" result="BackgroundImageFix"/>
<feColorMatrix in="SourceAlpha" type="matrix" values="0 0 0 0 0 0 0 0 0 0 0 0 0 0 0 0 0 0 127 0" result="hardAlpha"/>
<feOffset dx="1.5" dy="0.5"/>
<feGaussianBlur stdDeviation="1.5"/>
<feComposite in2="hardAlpha" operator="out"/>
<feColorMatrix type="matrix" values="0 0 0 0 0.379167 0 0 0 0 0.362417 0 0 0 0 0.325451 0 0 0 1 0"/>
<feBlend mode="normal" in2="BackgroundImageFix" result="effect1_dropShadow_142_78"/>
<feBlend mode="normal" in="SourceGraphic" in2="effect1_dropShadow_142_78" result="shape"/>
</filter>
<filter id="filter4_d_142_78" x="27.5" y="214.5" width="168" height="56" filterUnits="userSpaceOnUse" color-interpolation-filters="sRGB">
<feFlood flood-opacity="0" result="BackgroundImageFix"/>
<feColorMatrix in="SourceAlpha" type="matrix" values="0 0 0 0 0 0 0 0 0 0 0 0 0 0 0 0 0 0 127 0" result="hardAlpha"/>
<feOffset dx="1.5" dy="0.5"/>
<feGaussianBlur stdDeviation="1.5"/>
<feComposite in2="hardAlpha" operator="out"/>
<feColorMatrix type="matrix" values="0 0 0 0 0.379167 0 0 0 0 0.362417 0 0 0 0 0.325451 0 0 0 1 0"/>
<feBlend mode="normal" in2="BackgroundImageFix" result="effect1_dropShadow_142_78"/>
<feBlend mode="normal" in="SourceGraphic" in2="effect1_dropShadow_142_78" result="shape"/>
</filter>
<filter id="filter5_d_142_78" x="320.5" y="44.5" width="166" height="56" filterUnits="userSpaceOnUse" color-interpolation-filters="sRGB">
<feFlood flood-opacity="0" result="BackgroundImageFix"/>
<feColorMatrix in="SourceAlpha" type="matrix" values="0 0 0 0 0 0 0 0 0 0 0 0 0 0 0 0 0 0 127 0" result="hardAlpha"/>
<feOffset dx="1.5" dy="0.5"/>
<feGaussianBlur stdDeviation="1.5"/>
<feComposite in2="hardAlpha" operator="out"/>
<feColorMatrix type="matrix" values="0 0 0 0 0.379167 0 0 0 0 0.362417 0 0 0 0 0.325451 0 0 0 1 0"/>
<feBlend mode="normal" in2="BackgroundImageFix" result="effect1_dropShadow_142_78"/>
<feBlend mode="normal" in="SourceGraphic" in2="effect1_dropShadow_142_78" result="shape"/>
</filter>
<filter id="filter6_d_142_78" x="320.5" y="299.5" width="166" height="56" filterUnits="userSpaceOnUse" color-interpolation-filters="sRGB">
<feFlood flood-opacity="0" result="BackgroundImageFix"/>
<feColorMatrix in="SourceAlpha" type="matrix" values="0 0 0 0 0 0 0 0 0 0 0 0 0 0 0 0 0 0 127 0" result="hardAlpha"/>
<feOffset dx="1.5" dy="0.5"/>
<feGaussianBlur stdDeviation="1.5"/>
<feComposite in2="hardAlpha" operator="out"/>
<feColorMatrix type="matrix" values="0 0 0 0 0.379167 0 0 0 0 0.362417 0 0 0 0 0.325451 0 0 0 1 0"/>
<feBlend mode="normal" in2="BackgroundImageFix" result="effect1_dropShadow_142_78"/>
<feBlend mode="normal" in="SourceGraphic" in2="effect1_dropShadow_142_78" result="shape"/>
</filter>
<filter id="filter7_d_142_78" x="320.5" y="129.5" width="166" height="56" filterUnits="userSpaceOnUse" color-interpolation-filters="sRGB">
<feFlood flood-opacity="0" result="BackgroundImageFix"/>
<feColorMatrix in="SourceAlpha" type="matrix" values="0 0 0 0 0 0 0 0 0 0 0 0 0 0 0 0 0 0 127 0" result="hardAlpha"/>
<feOffset dx="1.5" dy="0.5"/>
<feGaussianBlur stdDeviation="1.5"/>
<feComposite in2="hardAlpha" operator="out"/>
<feColorMatrix type="matrix" values="0 0 0 0 0.379167 0 0 0 0 0.362417 0 0 0 0 0.325451 0 0 0 1 0"/>
<feBlend mode="normal" in2="BackgroundImageFix" result="effect1_dropShadow_142_78"/>
<feBlend mode="normal" in="SourceGraphic" in2="effect1_dropShadow_142_78" result="shape"/>
</filter>
<filter id="filter8_d_142_78" x="320.5" y="214.5" width="166" height="56" filterUnits="userSpaceOnUse" color-interpolation-filters="sRGB">
<feFlood flood-opacity="0" result="BackgroundImageFix"/>
<feColorMatrix in="SourceAlpha" type="matrix" values="0 0 0 0 0 0 0 0 0 0 0 0 0 0 0 0 0 0 127 0" result="hardAlpha"/>
<feOffset dx="1.5" dy="0.5"/>
<feGaussianBlur stdDeviation="1.5"/>
<feComposite in2="hardAlpha" operator="out"/>
<feColorMatrix type="matrix" values="0 0 0 0 0.379167 0 0 0 0 0.362417 0 0 0 0 0.325451 0 0 0 1 0"/>
<feBlend mode="normal" in2="BackgroundImageFix" result="effect1_dropShadow_142_78"/>
<feBlend mode="normal" in="SourceGraphic" in2="effect1_dropShadow_142_78" result="shape"/>
</filter>
</defs>
</svg>
