<svg width="595" height="192" viewBox="0 0 595 192" fill="none" xmlns="http://www.w3.org/2000/svg">
<path d="M436.578 2H237.916C234.097 2 231 5.09663 231 8.91651V143.511C231 147.331 234.097 150.427 237.917 150.427H436.578C440.398 150.427 443.494 147.331 443.494 143.511V8.9165C443.494 5.09662 440.398 2 436.578 2Z" fill="black" stroke="white" stroke-width="2.07495"/>
<path d="M427.461 11.1017H247.033C243.214 11.1017 240.117 14.1983 240.117 18.0182V112.705C240.117 116.525 243.214 119.622 247.033 119.622H427.461C431.281 119.622 434.378 116.525 434.378 112.705V18.0182C434.378 14.1983 431.281 11.1017 427.461 11.1017Z" fill="black" stroke="white" stroke-width="2.07495"/>
<path d="M340.778 133.274C340.778 135.331 339.246 136.796 337.598 136.796C335.949 136.796 334.418 135.331 334.418 133.274C334.418 131.218 335.949 129.752 337.598 129.752C339.246 129.752 340.778 131.218 340.778 133.274Z" fill="black" stroke="white" stroke-width="3.45825"/>
<path d="M346.294 150.583C341.279 150.466 330.608 150.301 328.045 150.583L322.169 175.632H350.923L346.294 150.583Z" fill="black" stroke="white" stroke-width="2.07495"/>
<path d="M374.071 175.632H300.423C298.49 175.632 296.922 177.199 296.922 179.133C296.922 181.066 298.49 182.633 300.423 182.633H374.071C376.005 182.633 377.572 181.066 377.572 179.133C377.572 177.199 376.005 175.632 374.071 175.632Z" fill="black" stroke="white" stroke-width="2.07495"/>
<path d="M357.234 65.7118C357.234 76.5385 348.443 85.3154 337.598 85.3154C326.753 85.3154 317.961 76.5385 317.961 65.7118C317.961 54.885 326.753 46.1082 337.598 46.1082C348.443 46.1082 357.234 54.885 357.234 65.7118Z" fill="#313131"/>
<ellipse cx="369.858" cy="19.5032" rx="4.20781" ry="4.20077" fill="#BDBDBD"/>
<ellipse cx="412.637" cy="19.5032" rx="4.20781" ry="4.20077" fill="#BDBDBD"/>
<ellipse cx="383.884" cy="19.5032" rx="4.20781" ry="4.20077" fill="#BDBDBD"/>
<ellipse cx="397.91" cy="19.5032" rx="4.20781" ry="4.20077" fill="#BDBDBD"/>
<line x1="247.13" y1="18.4573" x2="275.182" y2="18.4573" stroke="black" stroke-width="0.69165"/>
<line x1="247.13" y1="17.7656" x2="275.182" y2="17.7656" stroke="#8F7A32" stroke-width="2.07495"/>
<line x1="423.157" y1="17.057" x2="430.871" y2="17.057" stroke="#8F7A32" stroke-width="0.69165"/>
<line x1="425.261" y1="19.1574" x2="430.871" y2="19.1574" stroke="#8F7A32" stroke-width="0.69165"/>
<path d="M253.993 65H101.997C98.1774 65 95.0808 68.0966 95.0808 71.9165V165.252C95.0808 169.072 98.1774 172.169 101.997 172.169H253.993C257.813 172.169 260.909 169.072 260.909 165.252V71.9165C260.909 68.0966 257.813 65 253.993 65Z" fill="black" stroke="white" stroke-width="2.07495"/>
<path d="M89.0375 173.206H266.496V178.506C266.496 181.753 263.864 184.385 260.617 184.385H94.9165C91.6696 184.385 89.0375 181.753 89.0375 178.506V173.206Z" fill="black" stroke="white" stroke-width="2.07495"/>
<path d="M192.368 173.206C191.901 175.162 190.142 176.615 188.043 176.615H167.947C165.848 176.615 164.089 175.162 163.622 173.206H192.368Z" fill="black" stroke="white" stroke-width="2.07495"/>
<path d="M96.5015 184.385C96.9447 182.94 98.2893 181.89 99.8793 181.89L157.893 181.89C159.483 181.89 160.827 182.94 161.271 184.385L96.5015 184.385Z" fill="black" stroke="white" stroke-width="2.07495"/>
<path d="M194.72 184.385C195.163 182.94 196.507 181.89 198.097 181.89L256.111 181.89C257.701 181.89 259.045 182.94 259.489 184.385L194.72 184.385Z" fill="black" stroke="white" stroke-width="2.07495"/>
<rect x="102.964" y="77.9136" width="150.062" height="81.5702" fill="black" stroke="white" stroke-width="0.69165"/>
<ellipse cx="177.995" cy="118.699" rx="11.4207" ry="11.4253" fill="#313131"/>
<ellipse cx="233.956" cy="84.1944" rx="3.42621" ry="3.42758" fill="#BDBDBD"/>
<ellipse cx="220.252" cy="84.1944" rx="3.42621" ry="3.42758" fill="#BDBDBD"/>
<ellipse cx="206.547" cy="84.1944" rx="3.42621" ry="3.42758" fill="#BDBDBD"/>
<ellipse cx="192.842" cy="84.1944" rx="3.42621" ry="3.42758" fill="#BDBDBD"/>
<line x1="244.235" y1="80.421" x2="251.087" y2="80.421" stroke="black" stroke-width="0.69165"/>
<line x1="247.433" y1="82.7061" x2="251.087" y2="82.7061" stroke="#8F7A32" stroke-width="0.69165"/>
<line x1="244.235" y1="80.421" x2="251.087" y2="80.421" stroke="#8F7A32" stroke-width="0.69165"/>
<line x1="110.841" y1="83.3855" x2="129.115" y2="83.3855" stroke="#8F7A32" stroke-width="2.07495"/>
<path d="M487.037 179.234C487.037 169.737 494.737 162.037 504.234 162.037C513.731 162.037 521.43 169.737 521.43 179.234V182.367H487.037V179.234Z" fill="black" stroke="white" stroke-width="2.07495"/>
<path d="M504.234 161V167.773" stroke="white" stroke-width="2.07495"/>
<path d="M509.699 167.797H499.13C499.11 167.797 499.091 167.788 499.077 167.773L497.428 165.831L495.759 163.866" stroke="white" stroke-width="2.07495"/>
<path d="M498.841 167.773H509.549C509.57 167.773 509.589 167.764 509.603 167.748L511.274 165.689L512.965 163.605" stroke="white" stroke-width="2.07495"/>
<path d="M60.665 148.34C60.665 147.785 60.2151 147.335 59.66 147.335H30.8119C30.2568 147.335 29.8069 147.785 29.8069 148.34V176.067C29.8069 180.816 33.6564 184.665 38.4049 184.665H52.067C56.8155 184.665 60.665 180.816 60.665 176.067V148.34Z" fill="black" stroke="white" stroke-width="0.669975"/>
<path d="M29.729 156.5C29.729 156.5 16.5352 151.247 15.7641 166.224C14.9931 181.2 23.449 181.577 29.729 178.518" stroke="white" stroke-width="0.669975"/>
<path d="M29.4719 159.907C29.4719 159.907 20.5543 153.745 18.3734 166.578C16.1924 179.412 24.4809 177.112 29.4719 175.013" stroke="white" stroke-width="0.669975"/>
<path d="M413 102.917V175.899C413 179.719 416.097 182.816 419.917 182.816H452.369C456.189 182.816 459.286 179.719 459.286 175.899V102.916C459.286 99.0966 456.189 96 452.369 96H419.916C416.097 96 413 99.0966 413 102.917Z" fill="black" stroke="white" stroke-width="2.07495"/>
<line x1="422.117" y1="100.909" x2="450.169" y2="100.909" stroke="white" stroke-width="1.3833"/>
<path d="M449.468 139.058C449.468 146.598 443.345 152.71 435.792 152.71C428.24 152.71 422.117 146.598 422.117 139.058C422.117 131.518 428.24 125.405 435.792 125.405C443.345 125.405 449.468 131.518 449.468 139.058Z" fill="#313131"/>
<ellipse cx="2.8052" cy="2.80051" rx="2.8052" ry="2.80051" transform="matrix(1 0 0 -1 419.312 171.614)" fill="#BDBDBD"/>
<ellipse cx="2.8052" cy="2.80051" rx="2.8052" ry="2.80051" transform="matrix(1 0 0 -1 447.831 171.614)" fill="#BDBDBD"/>
<ellipse cx="2.8052" cy="2.80051" rx="2.8052" ry="2.80051" transform="matrix(1 0 0 -1 428.662 171.614)" fill="#BDBDBD"/>
<ellipse cx="2.8052" cy="2.80051" rx="2.8052" ry="2.80051" transform="matrix(1 0 0 -1 433.338 180.016)" fill="white"/>
<ellipse cx="2.8052" cy="2.80051" rx="2.8052" ry="2.80051" transform="matrix(1 0 0 -1 438.013 171.614)" fill="#BDBDBD"/>
<line x1="417.208" y1="109.665" x2="431.234" y2="109.665" stroke="#8F7A32" stroke-width="2.07495"/>
<line x1="451.572" y1="108.924" x2="457.182" y2="108.924" stroke="#8F7A32" stroke-width="0.503018"/>
<line x1="453.102" y1="110.451" x2="457.182" y2="110.451" stroke="#8F7A32" stroke-width="0.503018"/>
</svg>
