<svg width="589" height="187" viewBox="0 0 589 187" fill="none" xmlns="http://www.w3.org/2000/svg">
<path d="M442.111 2H243.45C239.63 2 236.533 5.09663 236.533 8.91651V143.511C236.533 147.331 239.63 150.427 243.45 150.427H442.111C445.931 150.427 449.028 147.331 449.028 143.511V8.9165C449.028 5.09662 445.931 2 442.111 2Z" fill="black" stroke="white" stroke-width="2.07495"/>
<path d="M432.994 11.1017H252.567C248.747 11.1017 245.65 14.1983 245.65 18.0182V112.705C245.65 116.525 248.747 119.622 252.567 119.622H432.994C436.814 119.622 439.911 116.525 439.911 112.705V18.0182C439.911 14.1983 436.814 11.1017 432.994 11.1017Z" fill="black" stroke="white" stroke-width="2.07495"/>
<path d="M346.311 133.274C346.311 135.331 344.78 136.796 343.131 136.796C341.483 136.796 339.951 135.331 339.951 133.274C339.951 131.218 341.483 129.752 343.131 129.752C344.78 129.752 346.311 131.218 346.311 133.274Z" fill="black" stroke="white" stroke-width="3.45825"/>
<path d="M351.827 150.583C346.812 150.466 336.142 150.301 333.578 150.583L327.703 175.632H356.456L351.827 150.583Z" fill="black" stroke="white" stroke-width="2.07495"/>
<path d="M379.605 175.632H305.956C304.023 175.632 302.456 177.199 302.456 179.133C302.456 181.066 304.023 182.633 305.956 182.633H379.605C381.538 182.633 383.105 181.066 383.105 179.133C383.105 177.199 381.538 175.632 379.605 175.632Z" fill="black" stroke="white" stroke-width="2.07495"/>
<path d="M362.768 65.7118C362.768 76.5385 353.976 85.3154 343.131 85.3154C332.286 85.3154 323.495 76.5385 323.495 65.7118C323.495 54.885 332.286 46.1082 343.131 46.1082C353.976 46.1082 362.768 54.885 362.768 65.7118Z" fill="#313131"/>
<ellipse cx="375.391" cy="19.5032" rx="4.20781" ry="4.20077" fill="#BDBDBD"/>
<ellipse cx="418.171" cy="19.5032" rx="4.20781" ry="4.20077" fill="#BDBDBD"/>
<ellipse cx="389.417" cy="19.5032" rx="4.20781" ry="4.20077" fill="#BDBDBD"/>
<ellipse cx="403.443" cy="19.5032" rx="4.20781" ry="4.20077" fill="#BDBDBD"/>
<line x1="252.663" y1="18.4573" x2="280.715" y2="18.4573" stroke="black" stroke-width="0.69165"/>
<line x1="252.663" y1="17.7656" x2="280.715" y2="17.7656" stroke="#8F7A32" stroke-width="2.07495"/>
<line x1="428.69" y1="17.057" x2="436.404" y2="17.057" stroke="#8F7A32" stroke-width="0.69165"/>
<line x1="430.794" y1="19.1574" x2="436.404" y2="19.1574" stroke="#8F7A32" stroke-width="0.69165"/>
<path d="M426 105.917V178.899C426 182.719 429.097 185.816 432.917 185.816H465.369C469.189 185.816 472.286 182.719 472.286 178.899V105.916C472.286 102.097 469.189 99 465.369 99H432.916C429.097 99 426 102.097 426 105.917Z" fill="black" stroke="white" stroke-width="2.07495"/>
<line x1="435.117" y1="103.909" x2="463.169" y2="103.909" stroke="white" stroke-width="1.3833"/>
<path d="M462.468 142.058C462.468 149.598 456.345 155.71 448.792 155.71C441.24 155.71 435.117 149.598 435.117 142.058C435.117 134.518 441.24 128.405 448.792 128.405C456.345 128.405 462.468 134.518 462.468 142.058Z" fill="#313131"/>
<ellipse cx="2.8052" cy="2.80051" rx="2.8052" ry="2.80051" transform="matrix(1 0 0 -1 432.312 174.614)" fill="#BDBDBD"/>
<ellipse cx="2.8052" cy="2.80051" rx="2.8052" ry="2.80051" transform="matrix(1 0 0 -1 460.831 174.614)" fill="#BDBDBD"/>
<ellipse cx="2.8052" cy="2.80051" rx="2.8052" ry="2.80051" transform="matrix(1 0 0 -1 441.662 174.614)" fill="#BDBDBD"/>
<ellipse cx="2.8052" cy="2.80051" rx="2.8052" ry="2.80051" transform="matrix(1 0 0 -1 446.338 183.016)" fill="white"/>
<ellipse cx="2.8052" cy="2.80051" rx="2.8052" ry="2.80051" transform="matrix(1 0 0 -1 451.013 174.614)" fill="#BDBDBD"/>
<line x1="430.208" y1="112.665" x2="444.234" y2="112.665" stroke="#8F7A32" stroke-width="2.07495"/>
<line x1="464.572" y1="111.924" x2="470.182" y2="111.924" stroke="#8F7A32" stroke-width="0.503018"/>
<line x1="466.102" y1="113.451" x2="470.182" y2="113.451" stroke="#8F7A32" stroke-width="0.503018"/>
<path d="M528.43 179.234V182.367H494.037V179.234C494.037 169.737 501.737 162.037 511.234 162.037C520.731 162.037 528.43 169.737 528.43 179.234Z" fill="black" stroke="white" stroke-width="2.07495"/>
<path d="M511.234 161V167.773" stroke="white" stroke-width="2.07495"/>
<path d="M516.699 167.797H506.13C506.11 167.797 506.091 167.788 506.077 167.773L504.428 165.831L502.759 163.866" stroke="white" stroke-width="2.07495"/>
<path d="M505.841 167.773H516.549C516.57 167.773 516.589 167.764 516.603 167.748L518.274 165.689L519.965 163.605" stroke="white" stroke-width="2.07495"/>
<mask id="path-30-inside-1_169_468" fill="white">
<path d="M80.6803 144.34C80.6803 143.6 80.0804 143 79.3403 143H49.1069C48.3668 143 47.7669 143.6 47.7669 144.34V170.194C47.7669 175.127 51.7663 179.127 56.6999 179.127H71.7473C76.6809 179.127 80.6803 175.127 80.6803 170.194V144.34Z"/>
</mask>
<path d="M80.6803 144.34C80.6803 143.6 80.0804 143 79.3403 143H49.1069C48.3668 143 47.7669 143.6 47.7669 144.34V170.194C47.7669 175.127 51.7663 179.127 56.6999 179.127H71.7473C76.6809 179.127 80.6803 175.127 80.6803 170.194V144.34Z" fill="black" stroke="white" stroke-width="4" mask="url(#path-30-inside-1_169_468)"/>
<path d="M48.0353 152.032C48.0353 152.032 34.2617 147.038 33.4568 161.276C32.6518 175.514 41.4794 175.872 48.0353 172.964" stroke="white" stroke-width="2"/>
<path d="M47.7668 155.27C47.7668 155.27 38.4574 149.412 36.1806 161.613C33.9039 173.814 42.5566 171.628 47.7668 169.632" stroke="white" stroke-width="2"/>
<path d="M259.993 60H107.997C104.177 60 101.081 63.0966 101.081 66.9165V160.252C101.081 164.072 104.177 167.169 107.997 167.169H259.993C263.813 167.169 266.909 164.072 266.909 160.252V66.9165C266.909 63.0966 263.813 60 259.993 60Z" fill="black" stroke="white" stroke-width="2.07495"/>
<path d="M95.0375 168.206H272.496V173.506C272.496 176.753 269.864 179.385 266.617 179.385H100.917C97.6696 179.385 95.0375 176.753 95.0375 173.506V168.206Z" fill="black" stroke="white" stroke-width="2.07495"/>
<path d="M169.622 168.206H198.368C197.901 170.162 196.142 171.615 194.043 171.615H173.947C171.848 171.615 170.089 170.162 169.622 168.206Z" fill="black" stroke="white" stroke-width="2.07495"/>
<path d="M167.271 179.385L102.501 179.385C102.945 177.94 104.289 176.89 105.879 176.89L163.893 176.89C165.483 176.89 166.827 177.94 167.271 179.385Z" fill="black" stroke="white" stroke-width="2.07495"/>
<path d="M265.489 179.385L200.72 179.385C201.163 177.94 202.507 176.89 204.097 176.89L262.111 176.89C263.701 176.89 265.045 177.94 265.489 179.385Z" fill="black" stroke="white" stroke-width="2.07495"/>
<rect x="108.964" y="72.9136" width="150.062" height="81.5702" fill="black" stroke="white" stroke-width="0.69165"/>
<ellipse cx="183.995" cy="113.699" rx="11.4207" ry="11.4253" fill="#313131"/>
<ellipse cx="239.956" cy="79.1944" rx="3.42621" ry="3.42758" fill="#BDBDBD"/>
<ellipse cx="226.252" cy="79.1944" rx="3.42621" ry="3.42758" fill="#BDBDBD"/>
<ellipse cx="212.547" cy="79.1944" rx="3.42621" ry="3.42758" fill="#BDBDBD"/>
<ellipse cx="198.842" cy="79.1944" rx="3.42621" ry="3.42758" fill="#BDBDBD"/>
<line x1="250.235" y1="75.421" x2="257.087" y2="75.421" stroke="black" stroke-width="0.69165"/>
<line x1="253.433" y1="77.7061" x2="257.087" y2="77.7061" stroke="#8F7A32" stroke-width="0.69165"/>
<line x1="250.235" y1="75.421" x2="257.087" y2="75.421" stroke="#8F7A32" stroke-width="0.69165"/>
<line x1="116.841" y1="78.3855" x2="135.115" y2="78.3855" stroke="#8F7A32" stroke-width="2.07495"/>
</svg>
